<?xml version="1.0" encoding="utf-8"?>
<!-- Generator: Adobe Illustrator 24.1.0, SVG Export Plug-In . SVG Version: 6.00 Build 0)  -->
<svg version="1.1" id="Capa_1" xmlns="http://www.w3.org/2000/svg" xmlns:xlink="http://www.w3.org/1999/xlink" x="0px" y="0px"
	 viewBox="0 0 512 512" style="enable-background:new 0 0 512 512;" xml:space="preserve">
<path fill="currentColor" className="fa-primary" d="M501.3,350.7c0,0,0.9,5.6,0,14.2c-16.2,92.4-203.8,113.3-245.5,5c-41.4,108.1-229.3,87.6-245.5-5
	c-0.9-8.6,0-14.2,0-14.2c4-38.2,38.2-46.5,38.2-46.5c-11.4,16.3-6.1,34.7-6.1,34.7c5.5,27.4,62.9,33.8,98.7-4
	c25.9-27.5,51.1-30,51.1-30c38.2-3.9,63.6,23.9,63.6,23.8c1.4-1.4,26.3-27.7,63.8-23.8c0,0,25.2,2.5,51.1,30
	c35.8,37.9,93.2,31.4,98.7,4c0,0,5.3-18.4-6.1-34.7C463,304.1,497.3,312.5,501.3,350.7z"/>
<path fill="currentColor" className="fa-primary" d="M500.5,132.5C492.2,85.2,451.9,69,403.8,69c-20.6,0-39.8,1.5-55.9,4.6c-20.5,4-37.5,11.3-49.3,24.3
	c-13.8-0.7-28.7-1.2-44.7-1.2c-14.6,0-28.3,0.4-41.1,1c-11.8-12.8-28.7-20.1-49.2-24c-16.9-3.2-37.2-4.8-58.2-4.8
	c-29.7,0-53,6.6-69.3,19.5c-13.4,10.7-21.9,25.5-25.2,44c-8.6,49.2,27.1,130.6,97.8,130.6c30.4,0,69.4-16.4,92.6-44.9
	c18.9-23.2,33.1-55.8,28.1-84.8c7.9-0.2,16.2-0.3,24.8-0.3c9.6,0,18.9,0.2,27.6,0.5c-4.9,28.8,9.2,61.5,28.1,84.7
	c23.2,28.5,60,44.9,90.4,44.9C479.1,263.1,508,175.5,500.5,132.5z M37.8,143.2c0-5.5,4.5-10,10-10c5.5,0,10,4.5,10,10s-4.5,10-10,10
	C42.3,153.2,37.8,148.7,37.8,143.2z M98.5,222.8c-2.3,5.1-8.2,7.3-13.2,5.1c-15.2-6.8-28.3-21.7-36.9-42.1c-2.1-5.1,0.2-11,5.3-13.1
	c5.1-2.1,10.9,0.2,13.1,5.3c6.5,15.4,16.2,26.9,26.6,31.6C98.5,211.9,100.7,217.8,98.5,222.8z M283.5,126.4
	c-9.9-0.2-20-0.3-30.5-0.3c-8.6,0-16.9,0.1-25,0.2c-2.1-7.8-5-14.5-8.8-20.4c10.3-0.9,21.9-1.4,34.5-1.4c14.3,0,27.2,0.8,38.5,1.8
	C288.5,112.1,285.6,118.8,283.5,126.4z M463.6,185.8c-8.6,20.4-21.6,35.3-36.8,42.1c-1.3,0.6-2.7,0.9-4.1,0.9
	c-3.8,0-7.5-2.2-9.1-5.9c-2.2-5,0-11,5.1-13.2c10.4-4.6,20.1-16.1,26.5-31.6c2.1-5.1,8-7.5,13.1-5.3
	C463.3,174.9,465.7,180.7,463.6,185.8z M464.2,153.2c-5.5,0-10-4.5-10-10s4.5-10,10-10c5.5,0,10,4.5,10,10S469.7,153.2,464.2,153.2z
	"/>
</svg>
