<?xml version="1.0" encoding="iso-8859-1"?>
<!-- Generator: Adobe Illustrator 16.0.0, SVG Export Plug-In . SVG Version: 6.00 Build 0)  -->
<!DOCTYPE svg PUBLIC "-//W3C//DTD SVG 1.1//EN" "http://www.w3.org/Graphics/SVG/1.1/DTD/svg11.dtd">
<svg version="1.1" id="Capa_1" xmlns="http://www.w3.org/2000/svg" x="0px" y="0px"
	 width="574.936px" height="574.936px" viewBox="0 0 574.936 574.936">
<g>
	<path className="fa-primary" fill="currentColor" d="M88.076,537.468C88.076,537.468,88.076,537.162,88.076,537.468"/>
	<path className="fa-primary" fill="currentColor" d="M497.197,53.989C493.525,5.334,471.8-1.091,429.571,0.133c-104.651,2.754-208.08,19.89-312.732,21.114
		c-5.202,0-8.568,3.978-8.874,8.874c-8.262,89.046-13.464,178.398-19.584,267.75c-5.814,80.784-21.114,160.038-4.59,240.822
		c0.918,4.896,9.486,3.978,8.874-1.225c0-0.918,0-1.529-0.306-2.447c9.18-5.202,18.054-10.099,26.316-16.524
		c9.18,11.322,18.666,22.032,29.988,31.824c3.06,2.754,7.344,2.754,10.404,0c10.098-8.874,19.278-18.36,28.458-28.152
		c7.65,9.18,13.77,18.972,20.196,29.376c2.754,4.284,7.956,4.59,11.934,1.53c11.016-9.18,21.42-18.666,31.824-28.152l0,0
		c9.18,8.874,18.36,17.442,27.54,26.316c2.754,3.366,7.65,4.896,11.016,1.53c7.345-10.404,17.442-16.219,30.601-17.442
		c5.202,8.262,13.464,18.36,19.584,26.01c1.836,2.448,6.731,3.061,9.18,1.225c12.853-9.792,23.868-20.809,34.272-32.742
		c8.874,14.994,17.441,29.682,29.682,42.228c4.284,4.284,11.322,2.143,13.158-3.366c3.366-10.403,7.038-20.502,10.71-30.6
		c9.18,11.628,18.666,22.95,28.458,34.272c6.731,7.649,17.748-3.366,11.322-11.322c-1.837-2.142-3.366-3.979-5.202-6.12
		c3.06-2.754,4.59-6.732,2.447-11.322c-29.376-57.834,1.837-151.47,5.202-213.588C484.346,239.73,503.93,143.34,497.197,53.989z
		 M471.493,182.814c-1.529-20.196-10.098-38.556-27.233-46.818c-5.814-2.754-12.546,1.224-12.853,7.038
		c-90.575,24.786-172.89-18.054-264.689-20.808c-2.448,0-3.978,1.224-4.59,2.754c-44.37,3.672-17.748,84.456,0.918,103.734
		c19.584,20.196,53.244,18.666,75.582,5.508c25.092-14.688,38.25-44.676,41.922-72.522c17.748,4.59,36.107,8.874,53.855,11.934
		c8.263,49.878,48.96,103.122,104.652,78.642c14.688-6.426,24.786-21.726,29.682-39.168c-2.447,30.906-4.59,61.506-6.426,92.717
		c-3.366,64.26-30.6,154.224-13.464,221.238c-2.448-3.061-4.896-5.814-7.344-9.181c-4.284-5.813-11.935-4.896-14.382,1.836
		c-3.979,10.404-7.345,20.809-11.017,31.519c-9.485-11.934-16.523-25.092-24.479-38.557c-2.448-3.978-8.874-5.508-12.24-1.529
		c-5.508,7.038-11.628,14.076-17.748,20.808c-17.136,18.972-26.01-0.918-35.802-16.523c-2.143-3.366-6.732-5.202-10.404-2.754
		c-12.852,8.567-14.382,9.792-26.01,19.89c-8.568,7.344-24.174-7.956-31.824-13.158c2.448-5.508-4.284-13.158-10.098-8.874
		c-11.016,8.262-21.114,17.136-31.518,26.316c-6.732-10.71-14.076-21.114-22.644-30.601c-2.754-3.06-7.956-2.754-10.71,0
		c-9.486,10.099-18.972,19.891-29.07,29.376c-10.404-9.792-19.89-20.502-29.07-31.823c-2.448-2.754-7.65-2.754-10.098,0
		c-7.038,7.649-14.994,14.076-23.256,20.195c-9.486-113.525,14.688-231.336,22.644-344.249c2.142-33.048,4.896-66.096,7.65-98.838
		c3.978-48.348,31.824-41.616,72.216-44.063c64.26-3.672,128.214-12.24,192.474-16.83c24.175-1.836,78.337-11.628,89.658,21.114
		c9.486,27.54,3.366,62.424,0.307,90.882C474.554,148.542,473.023,165.679,471.493,182.814z M415.495,199.951
		c6.427-2.448,10.404-8.262,12.24-14.688c1.53-5.508,0.918-12.852-2.142-18.36c4.896-2.142,9.792-4.59,14.076-7.956
		c1.836,2.754,3.365,5.508,4.896,8.568c5.508,22.644,0,46.818-26.01,54.468c-31.824,9.18-52.938-19.278-62.118-45.9
		c9.792,0.918,19.584,0.918,28.764,0.306c-0.306,0.918-0.306,1.53,0,2.448C388.874,191.383,400.502,206.071,415.495,199.951z
		 M165.494,134.772c0.612-0.306,0.918-1.224,0.918-1.836h0.306c7.65,0.918,16.218,2.448,24.786,4.284
		c-6.426,12.852-3.672,30.906,9.792,37.944c18.36,9.792,30.294-11.016,30.6-26.622c0-0.306,0-0.612,0-0.612
		c8.874,2.448,18.054,5.202,27.54,7.65c-0.918,0.306-1.836,0.612-2.754,1.53c-0.306,0.306-0.612,0.918-0.918,1.224
		c-2.754-0.918-6.426,0-7.956,2.448c-6.732,12.24-9.18,24.48-19.89,34.884c-11.322,10.71-28.458,12.546-41.922,6.12
		c-14.994-7.344-21.114-23.562-22.338-39.168c-0.612-6.426-0.306-12.852,0.306-19.278c0.306-2.142,0.612-4.284,1.53-6.426
		C165.8,135.385,165.8,134.772,165.494,134.772z"/>
	<path className="fa-primary" fill="currentColor" d="M413.659,354.786c-2.754,0-4.59,1.53-5.508,3.366c-1.53-0.612-3.672-0.612-5.813,0.306
		c-30.906,14.994-84.763,1.224-117.198-2.448c-41.004-4.283-83.232-11.934-124.542-11.321c0-0.307,0-0.307,0.306-0.307
		c1.53-2.447-1.836-5.202-3.978-3.06c-26.928,27.54,19.584,56.916,43.146,32.13c7.956,20.808,31.212,25.092,49.572,11.016
		c8.874,23.868,37.332,25.093,52.02,6.12c1.53,4.896,5.202,9.181,11.629,11.628c11.016,4.59,21.726-0.306,29.069-7.956
		c3.979,8.874,11.322,15.301,22.645,16.219c10.71,0.918,18.054-5.509,22.644-13.771c1.836,2.448,4.284,4.59,7.038,6.426
		c8.568,4.896,19.278,3.672,27.846-0.611c8.568-4.284,14.994-12.546,14.688-22.338C437.527,368.556,425.287,355.092,413.659,354.786
		z M158.149,351.727c12.852,1.224,26.01,2.754,38.862,4.59C187.22,382.632,153.253,373.758,158.149,351.727z M259.742,371.922
		c-0.612-6.426-7.956-8.262-11.628-3.06c-16.524,21.726-36.414,11.322-38.25-10.099c29.07,4.591,57.834,9.486,86.904,13.465
		C290.035,393.036,262.189,402.216,259.742,371.922z M312.067,375.288c0-0.306,0-0.918,0-1.224
		c6.426,0.918,15.912,2.754,26.316,3.978C330.733,393.954,304.724,397.932,312.067,375.288z M352.153,379.878
		c9.181,0.918,18.666,1.53,27.234,0.918C375.104,398.85,355.214,401.298,352.153,379.878z M416.413,391.2
		c-4.59,2.754-10.71,4.284-15.911,2.142c-3.672-1.529-6.12-4.59-8.263-7.956c0.612-2.142,0.918-4.283,1.225-6.426
		c8.262-1.836,14.382-5.508,17.441-11.322c2.754,2.143,6.12,3.979,8.874,6.427c1.225,1.224,2.143,2.142,2.754,3.672
		c0.307,0.306,0.918,2.754,0.612,2.142C423.758,384.162,421.004,388.14,416.413,391.2z"/>
</g>
<g>
</g>
<g>
</g>
<g>
</g>
<g>
</g>
<g>
</g>
<g>
</g>
<g>
</g>
<g>
</g>
<g>
</g>
<g>
</g>
<g>
</g>
<g>
</g>
<g>
</g>
<g>
</g>
<g>
</g>
</svg>
