<svg height="475.312pt" viewBox="0 0 475.312 475.312" width="475.312pt" xmlns="http://www.w3.org/2000/svg">
    <path fill="currentColor" className="fa-primary"
        d="m224 230.625-112-112-66.34375 66.34375-11.3125-11.3125 77.65625-77.65625 112 112 60-60 44 44 98.34375-98.34375 11.3125 11.3125-109.65625 109.65625-44-44zm0 0" />
    <path fill="currentColor" className="fa-primary"
        d="m46.65625 439.753906-13.3125-8.882812 134.390625-201.582032 105.664063 146.296876 51.640624-44.273438h106.960938v16h-101.039062l-60.359376 51.726562-102.335937-141.703124zm0 0"/>
    <path fill="currentColor" className="fa-primary"
        d="m167.296875 373.921875-88.386719-88.378906-33.917968 27.066406-9.984376-12.511719 45.113282-35.976562 88.582031 88.582031 136-104 39.296875 39.296875 86.34375-86.34375 11.3125 11.3125-97.65625 97.65625-40.703125-40.703125zm0 0" />
    <g fill="currentColor">
        <path fill="currentColor" className="fa-secondary" d="m32 11.3125h16v464h-16zm0 0" />
        <path fill="currentColor" className="fa-secondary"  d="m0 427.3125h464v16h-464zm0 0" />
        <path  fill="currentColor" className="fa-secondary"
            d="m68.28125 50.910156-28.28125-28.285156-28.28125 28.285156-11.3125-11.308594 39.59375-39.601562 39.59375 39.601562zm0 0" />
        <path fill="currentColor" className="fa-secondary"
            d="m435.71875 474.910156-11.3125-11.308594 28.28125-28.289062-28.28125-28.289062 11.3125-11.3125 39.59375 39.601562zm0 0" />
    </g>
</svg>