<?xml version="1.0" encoding="iso-8859-1"?>
<!-- Generator: Adobe Illustrator 18.1.1, SVG Export Plug-In . SVG Version: 6.00 Build 0)  -->
<svg version="1.1" id="Capa_1" xmlns="http://www.w3.org/2000/svg" x="0px" y="0px"
	 viewBox="0 0 42.089 42.089">
<g>
	<g>
		<path fill="currentColor" className="fa-primary" d="M19.07,14.703c-0.521-2.918-6.324,0.39-7.899-0.706c-1.208-0.841,1.411-4.485,1.839-5.321
			c0.219-0.426,4.311-0.438,4.905-0.549c1.219-0.227,3.148-0.74,3.007-2.342c-0.219-2.526-3.456-1.923-5.101-1.494
			c-3.055,0.797-6.114,1.474-9.287,1.206C5.337,5.396,1.603,5.075,2.57,7.421c0.695,1.686,5.849,0.168,5.16,2.146
			c-0.856,2.459-1.74,4.695-3.134,6.916c-1.148,1.83-2.415,3.581-3.61,5.378c-0.501,0.756-1.856,2.586-0.154,2.888
			c1.388,0.245,2.557-1.132,3.449-1.981c1.555,1.025,2.583,2.495,3.963,3.889c0.121,0.123-4.261,5.889-4.703,6.465
			c-0.685,0.896-2.88,2.949-2.01,4.222c1.763,2.576,8.327-6.489,9.083-7.511c1.364-1.842,2.797-3.774,3.543-5.897
			c0.646-1.839,1.581-3.592,2.743-5.157C17.727,17.665,19.346,16.248,19.07,14.703z M10.854,21.969
			c-1.241-1.142-2.362-2.172-3.577-3.289c0.343-0.766,0.705-1.577,1.07-2.393c1.45,0.081,2.815,0.157,4.335,0.241
			C12.117,18.452,12.033,20.313,10.854,21.969z"/>
		<path fill="currentColor" className="fa-primary" d="M38.331,25.487c-1.85-0.75-3.601-1.362-5.633-1.095c-2.634,0.349-5.213,1.455-7.908,1.087
			c-1.711-0.234-4.457-2.064-6.063-0.76c-1.098,0.893-0.124,2.953,0.011,4.089c0.255,2.14,0.348,4.291,0.812,6.404
			c0.261,1.188,1.536,6.694,3.75,4.584c0.942-0.899,0.621-2.358,1.938-2.963c1.24-0.57,2.798-0.187,4.11-0.275
			c0.939-0.063,1.882-0.108,2.822-0.122c0.596-0.008,1.19-0.004,1.785,0.018c1.348,0.049,2.721,0.26,4.039-0.144
			c2.85-0.874-1.916-3.038,0.264-4.229c1.336-0.73,3.801-2.601,3.548-4.36C41.617,26.406,39.333,25.894,38.331,25.487z
			 M32.928,32.177c-1.565,0.063-2.867,0.002-4.413,0.478c-1.201,0.369-2.853,1.385-4.15,0.938c-1.653-0.568-1.458-3.219-1.641-4.579
			c2.532,0.354,4.462-0.599,6.452-1.215c1.396-0.433,2.783-0.718,4.291-0.562C33.641,28.344,34.952,32.095,32.928,32.177z"/>
		<path fill="currentColor" className="fa-primary" d="M20.262,23.149c2.191-0.019,3.953-1.625,5.943-2.331c2.025-0.718,4.146-1.136,6.221-1.687
			c1.647-0.438,3.139-0.603,4.529,0.58c1.006,0.856,2.135,2.388,3.654,1.896c1.355-0.438,1.771-2.091,1.283-3.3
			c-0.622-1.546-2.201-2.445-3.536-3.297c-1.57-1.002-2.88-2.413-4.456-3.382c-1.235-0.761-1.612,0.143-1.479,1.403
			c0.158,1.498,1.093,3.275-0.713,3.928c-2.387,0.862-4.879,1.148-7.384,1.35c-0.366,0.03-0.747-0.109-1.28-0.195
			c-0.715-0.116,2.713-5.241,3-5.598c1.271-1.575,2.905-2.791,4.209-4.329c1.119-1.318,1.633-3.243,0.639-4.752
			c-1.159-1.758-3.176-1.617-5.038-1.617c0.12,0-0.19,3.717-0.24,4.015c-0.237,1.423-0.665,2.821-1.301,4.118
			c-1.729,3.531-5.487,6.426-6.253,10.384C17.74,21.987,18.521,23.164,20.262,23.149z"/>
	</g>
</g>
<g>
</g>
<g>
</g>
<g>
</g>
<g>
</g>
<g>
</g>
<g>
</g>
<g>
</g>
<g>
</g>
<g>
</g>
<g>
</g>
<g>
</g>
<g>
</g>
<g>
</g>
<g>
</g>
<g>
</g>
</svg>
