<?xml version="1.0" encoding="utf-8"?>
<!-- Generator: Adobe Illustrator 24.1.0, SVG Export Plug-In . SVG Version: 6.00 Build 0)  -->
<svg version="1.1" id="Capa_1" xmlns="http://www.w3.org/2000/svg" x="0px" y="0px"
	 viewBox="0 0 512 512">
<g>
	<path fill="currentColor" className="fa-primary" d="M266,425.9c-0.2-1.1-0.3-2.2-1.1-3c-2.4-2.5-4.8-5-7.4-7.3c-0.7-0.6-1.4-1.1-2.3-1.1c-2,0-4,0.3-5.8,1
		c-1.2,0.5-2.4,0.9-3.6,1.2c-2.4,0.6-4.6,1.8-6.7,3.2c-0.7,0.5-0.9,1-0.9,1.8c0,1.8-0.1,3.6,0,5.4c0,1.6,0,3.3,0.4,4.9
		c0.5,2,0.9,4,1.3,5.9c0.6,2.6,1.2,5.1,3,7.2c1.2,2.6,3.6,4.1,5.7,5.7c0.4,0.3,0.9,0.4,1.4,0.4c0.6,0,1.2,0,1.8-0.1
		c1.8,0.2,3.5-0.1,5.3-0.4c0.6,0.4,1.2,0,1.7-0.3c1.4-0.6,2.6-1.6,4-2.4c2.8-1.7,3.9-4.2,3.6-7.4c0-0.4,0-0.9,0-1.3
		C266.4,435.1,267,430.5,266,425.9z"/>
	<path fill="currentColor" className="fa-primary" d="M218.8,425.7c-0.1-1.5-0.2-3.1,1.1-4.4c-1.6-1.6-3.5-2.3-5.6-2.5c-0.5-0.1-0.9,0.1-1.3,0.5
		c-2.5,2.2-3.8,4.9-3.7,8.3c0.1,2.9,0.6,5.8,1.3,8.6c0.4,1.4,0.7,2.7,1.4,4c0.3,0.7,0.8,1.1,1.5,1.4c1.8,0.7,3.6,1.4,5.4,2.1
		c0.5,0.2,0.9,0.4,1.4,0.1c0.7-0.3,1-1,1.2-1.6c0.1-0.3,0.1-0.5,0.1-0.8c0-0.1,0-0.1,0-0.2C220.2,436.2,219.2,431,218.8,425.7z"/>
	<path fill="currentColor" className="fa-primary" d="M267.9,360.2c0-2.2-3-6.2-5.4-7.2c-0.3-0.3-0.7-0.4-1.2-0.4c-4.4,0.1-8.9-0.2-13.3,0.3c-2.5,1.2-4.7,2.9-6.5,5
		c-0.4,0.8-0.4,1.7-0.5,2.6c-1.1,5.1-0.4,10.1,1.2,14.9c0.2,0.6,0.5,1.1,1,1.5c1.6,1.6,3.1,3.2,5.2,4.3c3.6,1.9,7.3,3,11.4,2.1
		c2.8-0.6,5.1-2.2,7.3-4c0.6-0.5,0.8-1.2,0.9-1.9c0.2-3.8,0.5-7.7,0.2-11.5C267.9,364.1,268,362.2,267.9,360.2z"/>
	<path fill="currentColor" className="fa-primary" d="M292.1,422.7c-0.1-0.6-0.1-1.3-0.9-1.6c-1.3-0.5-2.6-1.3-4-1.6c-2.9-0.7-5.9-1.4-8.9-1.9
		c-2.7-0.5-5.1,0-6.6,2.7c-0.3,0.6-0.8,1.1-1.1,1.6c-0.5,0.8-0.9,1.8-1,2.8c-0.2,1.5-0.4,3-0.6,4.6c-0.2,2.5-0.8,4.9-0.3,7.4
		c0.2,0.9,0.2,1.9,0.1,2.8c-0.2,5.1,2.9,9.4,8.1,11.3c3.9,0.3,7.1-1.3,9.9-3.7c0.4-0.3,0.7-0.7,0.6-1.3c0.4-1,1-2,1.3-3
		c1.4-4.3,2.6-8.6,3.4-13.1C292.5,427.3,292.5,425,292.1,422.7z"/>
	<path fill="currentColor" className="fa-primary" d="M271.3,380.3c1.5,1,3.1,1.9,4.8,2.5c4.6,1.5,9.3,1.7,14,1.5c1,0,2-0.3,2.7-1.1c0.9-1,1.6-2.1,1.8-3.5
		c0.4-2,0.6-3.9,0.4-5.9c-0.3-2.9-0.6-5.8-0.8-8.7c-0.2-3.1-1.2-6-2-9c-0.2-0.9-0.8-1.4-1.9-1.5c-3.7-0.3-7.3-0.7-11-1
		c-1-0.2-1.8,0.4-2.5,0.9c-3.6,2.8-5.3,6.5-5.5,11c-0.2,1.1-0.5,2.3-0.5,3.4c-0.1,3.2,0,6.5-0.5,9.7
		C270.4,379.4,270.7,379.9,271.3,380.3z"/>
	<path fill="currentColor" className="fa-primary" d="M207.9,435.7c-0.4-2.2-0.7-4.5-1-6.7c-0.1-0.3-0.1-0.7-0.5-0.7c-1.4-0.1-2.9-0.2-4.3-0.2
		c-0.9,0-1.1,0.5-1.1,1.4c0,2,0.7,4,0.8,6c0,0.6,0.5,0.7,0.8,0.9c1.6,0.8,3.1,1.6,4.7,2.4c0.1,0,0.1,0,0.2,0
		c0.2-0.1,0.3-0.3,0.4-0.5c0.1-0.3,0-0.6-0.2-0.8C207.6,437,208,436.4,207.9,435.7z"/>
	<path fill="currentColor" className="fa-primary" d="M316.6,375.9c1,0.8,2.2,1.3,3.3,1.8c2.4,1,5.9,0.6,7.7-1.9c1.3-1.9,1.8-3.9,1.5-6.1c-0.3-2.5-0.7-5-0.9-7.5
		c0-0.7-0.3-0.9-0.9-1.1c-2.1-0.4-4.2-0.9-6.3-1.4c-0.3-0.1-0.5,0.1-0.8,0.2c-2.3,1.3-2.9,3.6-3.3,6c-0.7,2.8-0.6,5.8-1,8.6
		C315.8,375.2,316.1,375.5,316.6,375.9z"/>
	<path fill="currentColor" className="fa-primary" d="M297,379.5c-0.1,0.7,0,1.1,0.6,1.4c2.2,1.3,4.6,2.1,7.2,2.3c3.7,0.3,7.4-3.1,7.9-5.9c1-5.6,1.6-11.1,0.9-16.7
		c-0.3-2.6,0.2-3.1-3.3-2.4c-0.8-0.2-1.5,0.1-2.2,0.5c-3.7,1.9-6.8,4.5-10,7.1c-0.5,0.4-0.9,0.8-1,1.4c-0.7,1.8-0.4,3.6-0.3,5.4
		C297.1,374.9,297.3,377.2,297,379.5z"/>
	<path fill="currentColor" className="fa-primary" d="M203.2,382.3c1.3-0.7,2.4-1.7,3.5-2.8c0.4-0.5,0.5-0.9,0.1-1.5c-2.9-3.8-3.5-8.2-3.2-12.8
		c0-0.6,0.1-1.1-0.1-1.6c-0.3-1.4-1.3-2-2.6-2.4c-0.3,0-0.6,0-0.8,0.1c-3.2,1.1-6.4,2.4-9.5,3.8c-0.7,0.3-0.9,0.7-0.9,1.4
		c-0.1,1.8,0.2,3.6,0.2,5.4c0.1,2.4,0.9,4.1,2.8,5.6c2.4,1.9,4.8,3.6,7.6,4.9C201.2,382.8,202.2,382.8,203.2,382.3z"/>
	<path fill="currentColor" className="fa-primary" d="M208.9,271.9c-0.4-1-0.8-1.4-1.4-1.7c-0.1,0.1-0.2,0.3-0.4,0.4C207.4,271.2,208.1,271.3,208.9,271.9z"/>
	<path fill="currentColor" className="fa-primary" d="M167.8,308.6c0.6,1.4,1.5,2.6,2.7,3.6c0.2,0.5,0.6,0.7,1,1c0.1,0.1,0.2,0.2,0.3,0.3c0.2,0.1,0.4,0.3,0.5,0.1
		c0.2-0.2,0-0.4-0.1-0.5c-0.1-0.1-0.2-0.2-0.4-0.3c-0.3-0.3-0.5-0.8-1-1c-0.9-1.2-1.8-2.4-2.7-3.6c-0.1-0.3-0.3-0.7-0.6-0.6
		c-0.4,0.1-0.1,0.5,0,0.8C167.6,308.5,167.7,308.5,167.8,308.6z"/>
	<path fill="currentColor" className="fa-primary" d="M312.2,420.9c-0.4-0.2-0.7-0.5-1.1-0.8c-1.8-1.1-3.6-1.6-5.8-1c-2.3,0.7-4.7,1.2-7.1,1.5
		c-0.6,0.1-1.2,0.1-1.5,0.6c-1,1.4-2,2.7-2,4.6c0.1,3.3-0.5,6.5-1.3,9.6c-0.6,2.4-1.5,4.7-1.1,7.3c0,2.2,2.1,3.6,4.4,3
		c2.1,0,4.1-0.1,6.1-1.1c1.5-0.7,3-1.3,4.5-2c1.6-1,2.4-2.5,2.7-4.3c0.9-2.2,1.6-4.4,2-6.8c0.5-2.3,0.8-4.7,1.5-6.9
		C314,423,313.6,421.8,312.2,420.9z"/>
	<path fill="currentColor" className="fa-primary" d="M211.2,270.2c-0.1-0.2-0.2-0.3-0.4-0.2C210.9,270.1,211,270.2,211.2,270.2z"/>
	<path fill="currentColor" className="fa-primary" d="M210.2,270.2c0.1-0.1,0.2-0.2,0.4-0.4c-0.1-0.1-0.2-0.3-0.3-0.4c-0.2-0.1-0.4-0.3-0.6-0.1
		c-0.2,0.2,0,0.4,0.1,0.5C209.9,270,210,270.1,210.2,270.2z"/>
	<path fill="currentColor" className="fa-primary" d="M189.7,378.5c-1.3-1.1-2-2.5-2.2-4.1c-0.2-1.4-0.4-2.8-0.6-4.2c-0.3-1.1-0.5-2.1-1.7-2.6c-0.2,0-0.5,0-0.6,0.1
		c-2.3,1-4.6,2.1-6.8,3.4c0,0.6,0.3,1,0.5,1.4c2.3,5,6.2,8.7,9.6,12.9c0.2,0.2,0.5,0.4,0.8,0.6c0.5,0.3,1,0.3,1.6,0.1
		c1.8-0.9,3.6-1.7,5.3-3.1c-0.3-0.2-0.5-0.4-0.7-0.6C193.2,381,191.3,379.9,189.7,378.5z"/>
	<path fill="currentColor" className="fa-primary" d="M225.2,380.6c0.5,0.4,1.2,0.6,1.7,0.9c1.5,0.7,2.8,0.6,4.2-0.3c2-1.2,3.7-2.8,5.4-4.3c1-0.9,1.4-1.8,1.2-3.1
		c-0.5-3.7-0.1-7.5,0.5-11.2c0.1-0.7,0-1.3-0.1-1.9c-1-3.8-3.4-6.1-6.9-6.7c-3.2,0.5-6.3,0.9-9.5,1.3c-0.9,0.1-1.4,0.5-1.5,1.4
		c-0.1,0.5-0.2,1-0.3,1.5c-0.4,1.8-0.3,3.7-0.5,5.6c-0.3,2.9-0.5,5.8-0.5,8.7c0,1.6,0.5,2.9,1.6,4
		C221.9,378,223.5,379.3,225.2,380.6z"/>
	<path fill="currentColor" className="fa-primary" d="M207.8,376.8c2.1,2,4.5,3.3,7.4,3.5c0.4,0,0.7,0,0.8-0.3c0.6-1.4,1.2-2.8,0.8-4.4c-0.5-1.6-0.5-3.4-0.4-5.1
		c0.2-2.6,0.4-5.2,0.7-7.7c0.1-1.1,0.1-2.3,0.6-3.4c-0.1-1.2-0.5-2.1-1.7-2.6c-0.2,0-0.3-0.1-0.5-0.1c-2.4,0.3-4.6,0.9-6.9,1.5
		c-0.3,0.1-0.5,0.3-0.6,0.5c-0.7,1.2-1.5,2.3-1.9,3.6c-1.4,4.7-0.8,9.2,1.1,13.7C207.3,376.1,207.5,376.5,207.8,376.8z"/>
	<path fill="currentColor" className="fa-primary" d="M237.5,440.7c-1.4-6-1.7-12.1-1.6-18.2c0-1.4,0.1-2.7,1-3.8c0.3-0.4,0.2-0.7-0.1-1c-1.7-1.6-3.5-3.1-5.6-4
		c-1.2-0.5-1.4-0.5-2.3,0.5c-2.2,2.2-4.2,4.7-6,7.3c-0.8,1.1-1.2,2.3-1.2,3.5c-0.1,1.7-0.1,3.4,0.2,5.1c0.5,3,1.1,6,1.6,8.9
		c0.4,2.5,1.4,4.6,2.9,6.6c0.5,0.7,1,1.1,1.8,1.3c2.9,0.8,5.8,1.7,8.7,2.6c1.3-0.5,1.7-1.6,1.7-2.9c0.1-1.3,0-2.5-0.4-3.7
		C237.9,442.2,237.7,441.4,237.5,440.7z"/>
	<path fill="currentColor" className="fa-primary" d="M330.7,272.3c-0.3,0-0.5,0-0.7,0.3c-0.3,0-0.5,0-0.7,0.3c-0.3,0-0.5,0-0.7,0.3c-0.3,0-0.5,0-0.7,0.3
		c-0.3,0-0.5,0-0.7,0.3c-0.3,0-0.5,0-0.6,0.3c-0.2,0-0.3,0.1-0.4,0.3c-0.3,0-0.5,0.1-0.6,0.4c-0.1,0.1-0.2,0.2-0.4,0.3
		c0.2,0,0.3-0.1,0.4-0.3c0.3,0,0.5-0.1,0.6-0.4c0.2,0,0.3-0.1,0.4-0.3c0.3,0,0.5-0.1,0.7-0.4c0.3,0,0.5-0.1,0.7-0.3
		c0.3,0,0.5-0.1,0.7-0.3c0.3,0,0.5-0.1,0.7-0.3c0.3,0,0.5-0.1,0.7-0.3C330.3,272.6,330.5,272.5,330.7,272.3c0.3,0,0.5,0,0.7-0.3
		C331.1,271.9,330.8,271.9,330.7,272.3z"/>
	<path fill="currentColor" className="fa-primary" d="M325.3,425c-0.7-0.6-1.4-0.8-2.3-0.5c-2.2,0.7-4.4,1.5-6.5,2.3c-0.6,0.2-0.8,0.6-0.9,1.2
		c-0.5,3.4-1.4,6.8-2.2,10.1c-0.4,0.4-0.4,0.8,0,1.2c0.4,0.2,0.7-0.1,1.1-0.2c1.2-0.5,2.4-1.1,3.6-1.6c3.8-1.5,7.3-3.3,10.7-5.5
		c0.4-0.2,1-0.4,0.9-0.8c0-0.9,0.1-1.9-0.7-2.6C327.8,427.4,326.5,426.2,325.3,425z"/>
	<path fill="currentColor" className="fa-primary" d="M339,268.8c0.3-0.3,0.1-0.5-0.1-0.6c-0.4-0.1-0.9,0-1.3,0c0.1,0.2,0.4,0.4,0.1,0.5c-0.4,0.2-0.8,0.2-1.2,0.4
		c-2.1,0.7-4.2,1.2-6.1,2.3c-0.3,0-0.5,0.1-0.7,0.3c-0.3,0-0.5,0.1-0.7,0.3c-0.3,0-0.5,0.1-0.7,0.3c-0.3,0-0.5,0.1-0.7,0.3
		c-0.3,0-0.5,0.1-0.7,0.3c-0.3,0-0.5,0.1-0.7,0.4c-0.3,0-0.5,0.1-0.6,0.4c0.3,0,0.5-0.1,0.6-0.4c0.3,0,0.5-0.1,0.7-0.3
		c0.3,0,0.5,0,0.7-0.3c0.3,0,0.5,0,0.7-0.3c0.3,0,0.5,0,0.7-0.3c0.3,0,0.5,0,0.7-0.3c0.3,0,0.5,0,0.7-0.3c0.4,0,0.8,0,1.1,0.4
		c2.7-0.9,5.3-1.8,8-2.7C338.8,269.1,338.7,269.1,339,268.8z"/>
	<path fill="currentColor" className="fa-primary" d="M323.3,275.6L323.3,275.6c0.1-0.1,0.2-0.2,0.3-0.3c-0.1,0-0.2,0-0.3-0.1c0,0,0,0,0,0c-0.1,0-0.2,0-0.3,0
		c-0.2,0.1-0.3,0.3-0.1,0.5C323,275.9,323.2,275.8,323.3,275.6z"/>
	<path fill="currentColor" className="fa-primary" d="M368.6,318.6c-0.3,0-0.4,0.3-0.5,0.5c0,0.1,0.1,0.2,0.1,0.2c0.3-0.1,0.4-0.3,0.5-0.5
		C368.7,318.7,368.6,318.6,368.6,318.6z"/>
	<path fill="currentColor" className="fa-primary" d="M395.1,357.3c-0.3-10.2-0.5-20.3-0.8-30.5c-0.2-7.5-0.3-15.1-0.8-22.6c-0.3-5.2-0.8-10.4-1.2-15.6
		c-0.5-5.5-0.9-11.1-1.4-16.6c-0.4-4.8-0.9-9.5-1.2-14.3c-0.4-5.3-0.8-10.5-1.5-15.7c-1-8.1-2.7-16-4.7-23.9
		c-1.9-7.8-4-15.5-5.8-23.3c-1-4.4-1.8-8.9-1.7-13.5c0.1-7.2-0.1-14.3-0.5-21.5c-0.4-6.3-0.9-12.5-1.5-18.7
		c-0.7-7-1.5-13.9-2.5-20.8c-1.6-10.3-3.5-20.6-5.5-30.9c-2.4-12.5-5.4-24.8-9-37c-2.4-8.4-5.8-16.5-9.4-24.5
		c-0.5-1.1-0.5-2.2-1-3.3c-1.7-3.7-3.9-7.2-6.4-10.5c-0.7-0.9-1.6-1.8-2.7-2c-1-0.2-1.9-0.6-2.8-0.9c-2.5-0.9-4.9-1-7.5-0.5
		c-2.1,0.4-4,1.3-5.9,2.1c-2.4,1-4,2.7-5.2,5.1c-2.1,4.6-2.7,9.5-3.2,14.5c-0.3,3.3-0.1,6.6,0,10c0.1,3.2,0.4,6.3,0.7,9.4
		c0.4,4.2,0.7,8.5,1.2,12.7c0.4,3.4,0.7,6.8,1.1,10.2c0.6,4.4,1,8.8,1.2,13.2c0.2,3.4,0.3,6.7,0.1,10.1c-0.2,4.3-0.3,8.6-0.6,12.9
		c-0.3,4.9-0.7,9.8-1,14.8c-0.4,6.5-0.6,12.9-1.3,19.4c-0.6,4.8-1.2,9.6-2.2,14.3c-0.6,2.9-1.6,5.7-3.4,8c-1.4,1.7-2.8,3.3-4.5,4.7
		c-6.3,5.3-13.3,9.1-21,12c-2.7,1-5.5,1.7-8.3,2c-1.4,0.4-2.8-0.1-4.2,0.3l-0.1,0c-0.3,0.3-0.7,0.3-1,0l-0.1,0
		c-1.4-0.4-2.8,0.1-4.2-0.3c-2.8-0.4-5.6-0.9-8.3-1.6c-6-1.5-11.5-4.3-17-7.1c-10.8-5.5-18.9-13.6-24.5-24.4
		c-3.7-7.2-6.2-14.9-7.9-22.8c-2.8-13-3.4-24.1-3.6-32.8c0,0-1.7-58.8-6.9-69.9c-0.9-1.9-2.2-3.3-2.2-3.3c-3.8-3.4-8.2-5.2-13.3-5
		c-1.9,0.1-3.5,0.6-5.1,1.7c-3.9,2.7-6.5,6.3-8.7,10.3c-4.4,8-7.2,16.7-9,25.6c-1.1,5.5-1.8,11-2.6,16.5c-0.8,5.5-1.6,10.9-2.4,16.4
		c-0.7,4.6-1.3,9.2-2,13.8c-0.8,5.4-1.8,10.8-2.6,16.2c-0.8,5.2-1.6,10.4-2.5,15.6c-1.1,6.4-2.3,12.8-3.5,19.3
		c-1.7,9.3-3.5,18.5-5.5,27.6c-1.9,8.5-4.4,16.8-6.4,25.3c-1.5,6.6-2.8,13.2-3.8,19.9c-0.6,3.9-1,7.8-1.4,11.7
		c-0.4,3.3-0.6,6.6-0.8,9.9c-0.2,3.4-0.4,6.7-0.6,10.1c-0.2,4.4-0.6,8.7-0.7,13.1c-0.1,9.4-0.3,18.9,0.5,28.3
		c0.3,3.6,0.3,7.2,0.6,10.8c0.1,1.5,0.1,3.1,0.3,4.6c0.4,3.5,0.5,7,0.7,10.4c0.2,3.3,0.4,6.5,0.6,9.8c0.2,4.8,0.6,9.5,1,14.3
		c0.2,2.8,0.4,5.5,0.6,8.3c0.4,4.2,0.8,8.4,1.2,12.5c0.4,4,0.6,8.1,1.1,12.1c0.9,7.8,2.1,15.7,3.7,23.4c1.8,9,4.9,17.5,9.9,25.2
		c2.8,4.2,6,8.1,9.4,11.9c4.7,5.2,9.7,10,15.3,14.3c11.6,8.8,24,16.3,36.9,23.1c6.7,3.5,13.5,6.6,20.9,8.4
		c5.4,1.3,10.9,2.4,16.4,3.3c6,1,12.1,1.6,18.2,2c4.2,0.3,8.4,0.6,12.6,0.7c3.1,0.1,6.2,0.3,9.3,0.2c3.4-0.1,6.8-0.5,10.2-0.9
		c4.7-0.5,9.4-1.2,14-2.4c7-1.8,13.5-4.6,19.4-8.8c7.2-5.2,13.7-11.3,20.3-17.3c7.6-7,14.1-15.1,20.4-23.2
		c10-12.9,18.1-26.8,23.1-42.4c3.3-10.5,5.6-21.1,5.3-32.1C395.3,365,395.2,361.2,395.1,357.3z M159.1,293.2
		c0.8-2.9,2.1-5.6,3.8-8.1c1-1.4,1.7-2.9,2.2-4.6c0.4-1.3,1.4-2.2,2.3-3.2c0.8-0.8,1.6-1.6,2.4-2.3c5.6-5.2,11.8-9.6,19.1-12.2
		c5.4-1.9,11-2.5,16.7-1.2c2.6,0.6,5.2,1,7.6,2.1c4.3,2,7.3,5.2,9.2,9.4c2.5,5.6,3,11.4,2,17.4c-0.3,1.8-0.2,3.5-0.5,5.3
		c-0.8,5.2-2.4,10.1-4.9,14.7c-0.2,0.4-0.4,0.8-0.7,1.1c-1.5,1.7-3,3.4-4.5,5.1c-0.2,0-0.3,0.1-0.3,0.3l0,0c-0.2,0-0.3,0.1-0.3,0.3
		l0,0c-0.2,0-0.3,0.1-0.3,0.3c-0.2,0-0.3,0.1-0.3,0.3c-0.1-0.1-0.3-0.3-0.4-0.4c0-0.1,0-0.2,0.1-0.2v0c0.2,0,0.3-0.2,0.2-0.4
		c0.2-0.1,0.3-0.2,0.3-0.4c0.3-0.1,0.4-0.3,0.4-0.6c0.7-1.4,1.8-2.5,2.4-3.9c0.4-0.2,0.5-0.6,0.7-1c0.4-0.3,0.5-0.7,0.7-1
		c0.4-0.3,0.6-0.7,0.5-1.2c-0.5,0.2-0.7,0.5-0.9,0.9c-0.2,0.3-0.6,0.5-0.7,1c-0.3,0.3-0.6,0.5-0.7,1c-0.3,0.2-0.6,0.5-0.9,0.7
		c-0.2,0.1-0.5,0.1-0.6,0.2c-0.5,1-1.5,1.3-2.3,1.9c-0.4,0.3-0.9,0.4-1,1c-0.2,0.2-0.4,0.4-0.7,0.6l0,0c-0.2,0-0.4,0.1-0.4,0.3
		c-0.1,0-0.2,0-0.2,0.1c-0.2,0-0.3,0.1-0.4,0.3c-1.6,0.6-2.7,1.9-4.1,2.8c-0.7-0.1-1.3,0-1.9,0.3c-0.6,0.3-1.2,0.5-1.9,0.6
		c-0.8,0-2.9,0.4-3.7,0.7c0,0.1,0,0.2,0,0.3c-0.5,0-1,0-1.4,0.3c-0.6,0-1.1,0.1-1.6,0.4c0,0,0,0,0,0c-0.1,0-0.2,0-0.3,0.1
		c-0.5,0-1-0.1-1.4,0.3c-1.5,0.2-3,0.5-4.6,0.6c-4.8,0.2-9.5,0.1-14-1.6c-0.2-0.2-0.4-0.4-0.7-0.3c-0.1-0.1-0.2-0.1-0.3-0.1
		c-0.1-0.1-0.3-0.2-0.4-0.3c-0.3-0.2-0.7-0.5-1-0.7c-0.4-0.5-1-0.8-1.5-0.9c-0.8-0.1-1.5-0.6-2.2-1c-0.6-0.4-1.3-0.8-2-1.1
		c-0.2-0.2-0.4-0.5-0.6-0.7c0-0.3-0.1-0.5-0.4-0.7c0-0.4-0.2-0.7-0.4-1c0-0.4-0.2-0.7-0.3-1c-0.1-0.3-0.2-0.6-0.5-0.5
		c-0.3,0.1-0.1,0.5,0,0.7c0,0,0.1,0.1,0.1,0.1c0,0.4,0.1,0.7,0.3,1.1c0,0,0,0,0,0c0.1,0.4,0,0.9,0.4,1.3c0.2,1.4,0.8,2.8,1.1,4.2
		c-0.1,0.3,0,0.6,0.2,0.7c0.1,0.1,0.1,0.2,0.1,0.3c-0.1,0.3,0.1,0.8-0.3,1c-0.1-0.1-0.1-0.1-0.1-0.2c0-0.2-0.1-0.4-0.2-0.4
		c-1.4-2.9-2.3-6-2.9-9.1c-0.9-4.1-1.4-8.2-1.3-12.3c0-1.3,0.2-2.5,0.3-3.8c0.5-1.2,0.5-2.5,0.7-3.7c0.4-0.3,0.2-0.8,0.3-1.3
		c0,0,0,0,0,0c0.4-0.7,0.3-1.5,0.4-2.2c-0.6,0.4-0.6,1-0.8,1.5c-0.1,0.4-0.4,0.8-0.4,1.3c0.2,0.1,0.1,0.3,0.2,0.5
		c-0.1,0-0.2,0-0.3,0.1c-0.4,0.6-0.6,1.3-0.6,2c-1,3.9-1.2,7.9-0.8,11.9c0.3,3.2,0.7,6.4,1,9.6c-0.6-0.3-0.7-0.9-0.9-1.4
		c-1.2-2.7-1.6-5.5-2-8.3C157.1,302.2,157.9,297.7,159.1,293.2z M367.6,368.3c-0.3,1.7-0.6,3.4-0.9,5c-1.7,8.9-5.1,17.2-8.9,25.3
		c-3.1,6.6-6.8,13-10.4,19.3c-2,3.4-4.6,6.1-7.7,8.5c-9.3,7.4-19.7,13.1-30.6,17.8c-6.1,2.7-12.3,5.2-18.7,7
		c-7.2,2-14.6,3.3-22.1,3.9c-4,0.3-8,0.3-12,0c-3.2-0.3-6.5-0.2-9.7-0.4c-6.5-0.4-12.9-1.8-19.1-3.6c-12.5-3.6-24.4-8.5-35.5-15.4
		c-6.7-4.2-12.6-9.2-17.6-15.3c-4.6-5.7-8.1-12-11-18.7c-2.3-5.5-4.4-11-6-16.8c-0.2-0.8-0.2-1.6-0.4-2.4c-0.1-0.4,0.1-0.8,0.4-1
		c0.5-0.5,1-1,1.6-1.4c2.4-1.7,4.7-3.4,7.1-5.1c15.5-11.3,32.7-18.7,51.5-22.4c7-1.3,14-2.3,21.1-2.8c4.1-0.3,8.1-0.4,12.2-0.7
		c4.4-0.3,8.7-0.1,13.1-0.2c6.1,0.1,12.2,0.5,18.4,0.9c16.9,1.3,33.5,4.1,50,8.2c9.2,2.3,18.4,4.5,27.6,6.9c2.3,0.6,4.5,1.5,6.8,1.9
		C367.6,367,367.7,367.6,367.6,368.3z M375.9,312.8c-0.1,2.1-0.5,4.2-1.3,6.1c-0.4,1-0.8,1.9-2,2.8c0.5-3.2,1.7-5.9,1.7-8.8
		c0.5-1.1,0.3-2.2,0.3-3.4c0.1-0.3,0.1-0.5-0.1-0.8c-0.2,0.2-0.2,0.5-0.2,0.7c-0.1,0.6-0.5,1.1-0.3,1.7c-0.8,2.9-2,5.7-3.4,8.4
		c-1.1,1.9-2.3,3.8-4.3,4.9c-0.7,0.4-1.1,1.2-1.7,1.8c-0.6,0.6-1.2,1.2-1.9,1.6c-0.1-0.1-0.3-0.3-0.4-0.4c0.3-0.5,0.9-0.8,1.1-1.4
		c-0.1-0.3-0.4-0.2-0.5-0.1c-2.9,1.3-5.9,0.9-8.9,0.7c-1-0.1-2.1-0.2-3.1-0.2c-2.1,0.1-4.2-0.3-6.3-0.4c-0.2,0-0.4-0.2-0.6-0.3
		c-0.2-0.3-0.4-0.4-0.7-0.3c-0.3-0.6-0.8-0.4-1.3-0.4c-0.7-0.8,0-0.7,0.4-0.7l0.1,0l0.1,0.1c0.3,0.4,0.7,0.4,1.1,0.3c0,0,0,0,0,0
		c0,0,0,0,0,0l0.1,0l0.1,0.1c0.5,0.5,0.9,0.5,1.3-0.1c0.6-0.5,0.1-0.7-0.3-0.9c-1.7-0.7-3.5-0.8-5.3-1.1c-0.2-0.4-0.7-0.3-1-0.3
		c-0.3-0.3-0.7-0.3-1.1-0.4c-0.1-0.1-0.3-0.1-0.4-0.2c0,0,0,0,0,0c0,0,0,0,0,0c-0.1,0-0.1,0-0.2,0c-0.8-0.6-1.6-0.5-2.5,0
		c-1.2-0.4-2-1.3-3.2-1.8c-0.3-0.4-0.7-0.5-1.1-0.6c-0.3-0.3-0.7-0.6-1.3-0.5c0.2,0.5,0.5,0.7,0.9,0.9c0.3,0.2,0.6,0.6,1,0.6
		c2.9,2.1,5.9,3.9,9.3,5c2.7,1.2,5.5,1.9,8.3,2.8c0.6,0.2,1.2,0.2,1.7,0.6c-0.9,0.7-2,0-3,0.3c-5.8-0.8-10.9-3.1-15.7-6.4
		c-2.2-1.6-4.2-3.4-6-5.5c-0.3-0.3-0.6-0.7-0.9-0.9c-3.6-2.4-5.9-5.8-7.6-9.7c-0.9-2-1.8-4.1-2.6-6.1c-2.4-5.9-3.4-12-3.2-18.4
		c0.1-3.3,0.9-6.3,2.4-9.2c2.7-5.3,7.2-8.3,12.8-9.7c3.9-0.9,7.7-1,11.7-0.6c4.6,0.5,9,1.6,13.3,3.3c1.8,0.7,3.3,1.8,4.9,2.8
		c6.1,3.8,11,8.7,14.2,15.3c1.5,3.1,3.3,6.2,4.4,9.5c0.5,1.4,0.9,2.9,0.9,4.5c-0.5,0-0.6-0.3-0.7-0.5c0-0.3-0.1-0.6-0.4-0.6
		c-0.3,0-0.2,0.3-0.2,0.5c0.1,0.4,0,0.8,0.3,1.1C375.7,303.3,376.2,308,375.9,312.8z"/>
	<path fill="currentColor" className="fa-primary" d="M408.5,372c-0.1-1.1-0.1-2,0-2.9c0-0.4,0-0.8,0-1.2c-0.2-2-0.3-4.2-0.3-6.4c0-1,0-2,0-2.9
		c-0.1-2-0.1-4.1-0.2-6.1c-0.2-3.9-0.3-7.5-0.2-11.2c0-0.3,0-0.6,0-0.9c0.1-1.4,0.1-3.2-0.2-5c-0.1-2.9-0.1-5.3,0-7.4
		c0-0.6,0-1.1-0.1-1.7c0.2-4.2,0-8.3-0.2-12.3c-0.1-1.4-0.1-2.8-0.2-4.1l0-0.9c0-1.6-0.1-3.5-0.5-5.4c0-0.1,0-0.2-0.1-0.3
		c0-0.1,0-0.2,0-0.2c0-0.4,0-1,0-1.6l-0.3-2.8c-0.3-2.9-0.6-6-0.7-8.9c-0.2-2.6-0.4-5.3-0.6-7.8c-0.2-1.9-0.4-3.8-0.5-5.7
		c-0.2-2.3-0.4-4.6-0.6-6.8c-0.2-2.6-0.5-5.2-0.6-7.8c-0.3-4.7-0.7-9.7-1.3-16.2c-0.6-6-1.6-12.3-3.1-19.4
		c-1.2-5.8-2.7-11.6-4.1-17.2c-1.1-4.3-2.2-8.8-3.2-13.1l-0.3-1.4c-1.2-5-2.2-9.7-2.3-14.4c0-5.9-0.1-13-0.5-19.9l-0.1-1.7
		c-0.1-2.6-0.3-5.2-0.5-7.9c-0.2-1.8-0.3-3.7-0.5-5.5c-0.2-2.4-0.4-4.8-0.7-7.3c-0.1-1.1-0.2-2.2-0.4-3.2c-0.2-2.3-0.5-4.6-0.8-6.9
		c-0.6-4.7-1.3-9.7-2.3-14.8c-0.6-3.2-1.2-6.3-1.7-9.5c-0.7-3.7-1.3-7.6-2.1-11.4c-2.3-12.2-5.1-24.3-8.4-35.9
		c-1.7-6.2-4.1-14.3-7.5-22.2c-1.1-2.5-2.1-5-3.2-7.5l-1.2-2.7l-0.1-0.2c-0.1-0.3-0.3-0.9-0.6-1.4c-0.1-0.4-0.3-0.7-0.5-1
		c-0.2-0.4-0.3-0.7-0.5-1c-0.1-0.2-0.2-0.5-0.4-0.7c-0.1-0.3-0.3-0.7-0.4-0.9c-0.1-0.3-0.2-0.5-0.4-0.7c-0.1-0.2-0.2-0.4-0.3-0.6
		c-0.2-0.4-0.4-0.8-0.6-1.1c-0.2-0.3-0.4-0.6-0.5-0.8c-0.1-0.3-0.3-0.6-0.5-0.8c-0.2-0.4-0.5-0.8-0.8-1.2c-0.2-0.3-0.5-0.8-0.9-1.2
		c-0.6-0.9-1.2-1.8-2-2.6c-0.2-0.3-0.5-0.6-0.8-0.9c0,0,0,0,0,0c-0.3-0.4-0.7-0.8-1.1-1.2c-0.4-0.6-1.1-1.3-2.2-1.9
		c-0.4-0.3-1-0.6-1.6-0.8c-0.1-0.1-0.2-0.1-0.4-0.2c-0.4-0.3-0.9-0.6-1.5-0.8c-0.8-0.4-1.7-0.8-2.7-1.1c-0.5-0.2-1-0.4-1.6-0.5
		c-1.5-0.5-2.8-0.6-3.8-0.7c-0.3,0-0.6,0-0.9-0.1C333.6,1,333.3,1,333,1c0,0,0,0,0,0l-5,0c-0.4,0-0.8,0-1.2,0.1
		c-0.6,0-1.7,0-2.9,0.3c-0.6,0-1.5,0.1-2.5,0.5c-0.4,0.1-0.9,0.2-1.3,0.4c-0.6,0.2-1.1,0.4-1.6,0.7c-0.4,0.2-0.8,0.4-1.1,0.6
		c-0.4,0.2-0.8,0.5-1.1,0.7c-0.3,0.2-0.7,0.4-1,0.7c-0.6,0.3-1.3,0.8-2.1,1.4c-0.5,0.3-1,0.7-1.4,1.1c-0.3,0.2-0.6,0.5-0.9,0.8
		c-0.1,0.1-0.3,0.2-0.4,0.4c-0.3,0.3-0.6,0.6-0.8,0.9c-0.5,0.6-0.8,1.2-1,1.6c-0.1,0.1-0.2,0.2-0.2,0.3c-0.2,0.3-0.5,0.6-0.7,1
		c0,0,0,0.1-0.1,0.1c-0.3,0.3-0.5,0.7-0.7,1.2c-0.4,0.6-0.7,1.2-0.8,1.7c-0.2,0.3-0.3,0.6-0.4,1c-0.5,0.9-0.8,1.8-1.1,2.7
		c-0.2,0.4-0.3,0.9-0.4,1.5c-0.7,1.9-1,3.7-1.1,5.2c-0.2,0.8-0.3,1.5-0.3,2c-0.3,0.8-0.3,1.6-0.3,2.2c-0.2,0.7-0.3,1.3-0.3,1.7
		c0,1,0,2,0,3c-0.1,5.2-0.1,10.6,0.5,16c0,0.2,0,0.6,0,1c0,1,0,2.2,0.4,3.6c0,0.3,0.1,0.7,0.1,1c0,0.3,0,0.7,0,1
		c0.2,2.6,0.5,5.1,0.8,7.6l0.1,0.9c0,0.2,0,0.4,0.1,0.6c0,0.6-0.1,1.4,0.2,2.5c0,0.2,0,0.3,0,0.5c0.3,3,0.6,5.5,1,7.9
		c0,0.2,0.1,0.5,0.1,0.7c0,0.1,0,0.5,0,0.7c0,0.8-0.1,1.9,0.2,3.1c0.5,2.7,0.7,5.5,0.8,8c0.3,8.3,0.1,16.5-0.7,24.5
		c-0.1,1.2-0.1,2.4-0.1,3.5c0,1.3,0,2.5-0.2,3.5c0,0.3-0.1,0.6-0.1,0.9c-0.2,1.5-0.3,2.9-0.4,4.2c0,0.5-0.1,1.1-0.1,1.6
		c-0.2,2.3-0.3,4.6-0.4,6.8c0,1-0.1,2-0.1,3.1c0,0.3,0,0.6,0,0.8c-0.3,1.3-0.3,2.4-0.2,3.1c0,0,0,0.1,0,0.1
		c-0.1,0.2-0.1,0.5-0.1,0.7c-0.4,2.7-0.7,5.5-1,8.6c-0.2,0.7-0.2,1.3-0.2,1.8c-0.3,1.1-0.5,2-0.6,2.9c-0.3,0.9-0.4,1.7-0.4,2.4
		c-0.1,0.2-0.1,0.4-0.2,0.6c-0.2,0.8-0.5,1.6-0.7,2.5c0,0,0,0,0,0.1c-0.1,0.2-0.2,0.3-0.3,0.5c-0.1,0.2-0.2,0.4-0.3,0.7c0,0,0,0,0,0
		c-0.2,0.2-0.4,0.4-0.5,0.7c-0.6,0.6-1.2,1.3-1.9,1.9l-0.2,0.2c-0.4,0.3-0.7,0.6-1,0.9c-0.1,0.1-0.2,0.2-0.3,0.3c0,0,0,0,0,0
		c-0.3,0.2-0.7,0.5-1,0.8c-0.6,0.4-1.1,0.8-1.4,1c-0.1,0-0.1,0.1-0.2,0.1c-0.3,0.1-0.5,0.3-0.7,0.4c-0.3,0.2-0.7,0.4-1,0.7
		c-0.4,0.2-1.1,0.5-1.7,1.1c0,0-0.1,0.1-0.1,0.1c-0.1,0-0.2,0.1-0.3,0.2c-0.4,0.2-0.7,0.4-1,0.6c-0.3,0.1-0.5,0.3-0.7,0.4
		c-0.4,0.1-0.9,0.4-1.5,0.8c-0.2,0.1-0.3,0.2-0.5,0.2c-0.2,0.1-0.4,0.2-0.6,0.3c-0.2,0.1-0.5,0.2-0.7,0.3c-0.2,0.1-0.4,0.2-0.6,0.3
		c-0.1,0-0.1,0.1-0.2,0.1c-0.5,0.1-1,0.3-1.4,0.6c-0.2,0.1-0.4,0.2-0.6,0.3c-0.3,0.1-0.6,0.2-1,0.4c-0.9,0.2-1.8,0.5-2.7,0.9
		c-0.3,0-0.6,0.1-1,0.1c-0.8,0.1-1.7,0.2-2.8,0.5c-1.7,0.2-3.7-0.1-5.7-0.4c-1-0.1-2.1-0.3-3.2-0.4c-0.3-0.1-0.6-0.2-1-0.3
		c-0.6-0.2-1.2-0.4-2-0.5c-0.4-0.2-0.8-0.3-1.3-0.3c-0.9-0.3-1.9-0.6-2.7-0.8c-0.4-0.2-0.8-0.3-1.2-0.4c-0.4-0.2-0.8-0.3-1.1-0.4
		c-0.3-0.2-0.7-0.3-1.1-0.5c-0.7-0.4-1.3-0.6-1.8-0.8c-0.2-0.1-0.4-0.2-0.6-0.3c-0.2-0.1-0.4-0.2-0.7-0.3c-0.2-0.1-0.5-0.2-0.7-0.4
		c-0.2-0.1-0.4-0.2-0.6-0.3c-0.2-0.1-0.4-0.2-0.7-0.3c-0.2-0.1-0.4-0.2-0.7-0.3c-0.2-0.1-0.4-0.2-0.7-0.3c-0.2-0.1-0.4-0.2-0.7-0.3
		c-0.1-0.1-0.3-0.2-0.4-0.2c-0.6-0.4-1.1-0.6-1.6-0.8c-0.4-0.3-0.8-0.5-1.2-0.7c-0.3-0.2-0.6-0.4-0.9-0.5c-0.3-0.2-0.5-0.3-0.8-0.5
		c-0.2-0.1-0.4-0.3-0.6-0.4c-0.1-0.1-0.1-0.1-0.2-0.1c-0.3-0.2-0.6-0.4-1-0.6c-0.2-0.2-0.5-0.3-0.7-0.4c-0.3-0.2-0.5-0.4-0.7-0.5
		c-0.1-0.1-0.3-0.2-0.4-0.3c-0.2-0.2-0.4-0.3-0.7-0.5c-0.2-0.2-0.5-0.4-0.7-0.6c-0.2-0.2-0.4-0.3-0.6-0.4c-0.2-0.2-0.4-0.4-0.7-0.5
		c-1.1-1.1-2.3-2.2-3.4-3.4l-0.5-0.5c-0.1-0.2-0.3-0.4-0.5-0.6c-0.4-0.6-0.8-1-1.2-1.4c-0.2-0.2-0.4-0.5-0.6-0.7
		c-0.2-0.3-0.3-0.5-0.5-0.7c-0.1-0.1-0.2-0.2-0.3-0.3c-0.2-0.3-0.4-0.7-0.7-1c-0.4-0.7-0.8-1.3-1.2-1.8c-0.1-0.3-0.3-0.6-0.5-0.8
		c-0.2-0.3-0.3-0.6-0.5-0.9c-0.1-0.2-0.2-0.3-0.2-0.4c-0.2-0.5-0.5-0.9-0.8-1.3c-0.2-0.5-0.5-1.1-0.9-1.8c0,0,0,0,0-0.1
		c-0.1-0.6-0.3-1-0.6-1.5c-0.1-0.3-0.2-0.5-0.4-0.7c0,0,0-0.1,0-0.1c-0.1-0.5-0.3-1-0.6-1.4c-0.2-0.5-0.4-0.9-0.5-1.3
		c-0.1-0.2-0.2-0.3-0.2-0.5c0,0,0,0,0,0l0-0.1c-0.1-0.4-0.3-1.1-0.6-1.9c-0.1-0.4-0.2-0.7-0.4-1.1c-0.1-0.4-0.2-0.7-0.3-1
		c-0.1-0.4-0.2-0.7-0.3-1c-0.1-0.4-0.2-0.7-0.3-1c-0.1-0.2-0.1-0.4-0.2-0.6c-0.1-0.8-0.3-1.4-0.5-2c-0.1-0.6-0.3-1.2-0.5-1.8
		c0-0.4-0.1-0.8-0.2-1.2c-0.2-1.3-0.5-2.6-0.8-3.6c-0.1-0.3-0.1-0.5-0.2-0.8c-0.2-2-0.6-3.9-1-5.7c-0.1-0.6-0.2-1.2-0.4-1.8
		c0-0.1,0-0.1,0-0.2c-0.1-1.6-0.3-3.2-0.6-5.1c-0.1-0.3-0.1-0.8-0.1-1.3c0-1-0.1-2.3-0.4-3.7c0-0.2,0-0.4,0-0.6
		c0-12.4,0-24.8,0-37.2c0-2.1-0.2-4.1-0.3-6.1l-0.1-1.4c0-0.4,0-0.7,0-1.1c0-1.2,0-2.8-0.5-4.5c0,0,0,0,0-0.1c0-0.6,0.1-1.7-0.2-2.9
		c0-0.2,0-0.5,0-0.7c-0.2-3-0.6-5.6-1.1-7.9c0-0.7,0-1.6-0.4-2.7c-0.1-0.7-0.3-1.4-0.5-1.9c-0.1-0.5-0.3-1.1-0.5-1.7
		c-0.1-0.8-0.3-1.4-0.5-2c-0.1-0.5-0.3-1.2-0.6-1.9c-0.1-0.3-0.1-0.6-0.2-0.8c-0.1-0.8-0.3-1.4-0.6-2c-0.1-0.4-0.3-0.8-0.4-1.2
		c-0.1-0.6-0.3-1.1-0.6-1.5c-0.1-0.4-0.3-0.9-0.6-1.5c-0.1-0.2-0.1-0.4-0.2-0.6c-0.2-0.8-0.6-1.9-1.3-2.9c-0.1-0.2-0.1-0.3-0.2-0.5
		c-0.2-0.5-0.5-1.2-1.1-2c-0.2-0.3-0.4-0.7-0.8-1.1c-0.1-0.2-0.3-0.4-0.4-0.5c-0.5-0.7-1.1-1.3-1.8-1.8c-0.2-0.1-0.3-0.3-0.5-0.4
		c-0.3-0.3-0.7-0.6-1.1-0.9c-0.2-0.2-0.4-0.4-0.6-0.5c-0.4-0.4-0.9-0.8-1.4-1.1c-0.4-0.3-0.8-0.6-1.1-0.7c-0.4-0.3-0.7-0.5-1.1-0.7
		c-0.2-0.1-0.4-0.3-0.6-0.4c0,0,0,0,0,0c-0.4-0.3-0.9-0.7-1.4-1c-0.3-0.2-0.7-0.4-1.2-0.6c-1.4-0.8-2.7-0.9-3.4-1
		c-0.1,0-0.2,0-0.2,0c-0.4-0.1-0.8-0.1-1.2-0.1c-2.6-0.3-5.2-0.3-7.7,0c-0.5,0-1.1,0-1.6,0.1c-0.1,0-0.2,0-0.3,0
		c-0.7,0.1-1.8,0.2-2.9,0.8c-0.6,0.1-1.1,0.3-1.5,0.6c-0.3,0.1-0.5,0.2-0.7,0.4c-0.3,0.1-0.5,0.2-0.7,0.4c-0.4,0.2-0.8,0.4-1.1,0.6
		c-0.5,0.2-1.1,0.6-1.8,1.1c-0.1,0.1-0.2,0.1-0.3,0.2c-0.3,0.2-0.6,0.4-0.9,0.6c-0.2,0.1-0.4,0.3-0.6,0.5c-0.6,0.4-1.1,0.8-1.4,1.2
		c-0.3,0.2-0.6,0.5-0.9,0.8c-0.1,0.1-0.3,0.3-0.4,0.4c-0.1,0.1-0.2,0.2-0.3,0.3c-0.1,0.1-0.2,0.2-0.3,0.4c-0.1,0.1-0.2,0.2-0.3,0.3
		c-0.3,0.3-0.6,0.6-0.8,1c-0.4,0.4-0.8,0.8-1.2,1.4c-0.1,0.2-0.3,0.3-0.4,0.5c-0.3,0.4-0.6,0.7-0.7,1c-0.1,0.2-0.3,0.3-0.4,0.5
		c-0.5,0.6-0.8,1.1-1,1.6c-0.1,0.2-0.2,0.3-0.4,0.5c-0.2,0.3-0.4,0.6-0.6,1c-0.2,0.3-0.4,0.6-0.5,0.9c-0.2,0.3-0.4,0.6-0.5,1
		c-0.5,0.7-0.8,1.3-1,1.9c-0.3,0.3-0.5,0.7-0.7,1.2c-0.1,0.2-0.2,0.4-0.3,0.7c-0.2,0.4-0.4,0.7-0.5,1.2c-0.3,0.6-0.6,1.2-0.8,1.8
		c-0.2,0.3-0.3,0.6-0.4,0.9c-0.4,0.7-0.5,1.3-0.7,1.7c-0.3,0.7-0.5,1.3-0.7,1.7l0,0c-0.4,0.8-0.7,1.6-0.8,2.2
		c-0.1,0.2-0.2,0.4-0.2,0.6c-0.5,1.1-0.8,2.1-1,2.9c-0.2,0.4-0.3,0.7-0.4,1.2c-0.1,0.3-0.3,0.7-0.3,1c-0.2,0.5-0.3,1-0.4,1.5
		c-0.2,0.5-0.3,1-0.4,1.6c-0.2,0.6-0.4,1.3-0.5,1.9c-0.3,0.7-0.5,1.5-0.5,2.3c-0.2,0.5-0.3,1-0.3,1.6c-0.3,0.9-0.5,1.8-0.6,2.7
		c-0.5,1.3-0.5,2.4-0.4,3.1c0,0.1,0,0.2,0,0.3c-0.5,2.2-0.8,4.1-1,6.1c0,0.1,0,0.2,0,0.3c-0.2,0.7-0.2,1.3-0.2,1.8
		c0,0.1,0,0.2-0.1,0.3c-0.4,1.9-0.9,4.3-1.1,7l-0.1,0.5c-0.3,1.7-0.7,3.5-0.9,5.4c0,0.1,0,0.2,0,0.3c-0.2,0.7-0.2,1.4-0.2,1.9
		c0,0.1,0,0.2-0.1,0.3c-0.4,1.9-0.7,4-1,6.5c0,0.2,0,0.3,0,0.5c-0.2,0.7-0.2,1.3-0.2,1.8c0,0.1,0,0.1,0,0.2c-0.6,2.5-0.9,5-1,6.9
		c-0.4,2-0.8,4-1,6c0,0.1,0,0.2,0,0.3c-0.2,0.7-0.2,1.3-0.2,1.7c-0.6,2.2-0.8,4.3-1,6.4c-0.3,0.9-0.3,1.7-0.3,2.2
		c-0.3,1.2-0.5,2.4-0.6,3.4l-0.1,0.7c0,0.2,0,0.4-0.1,0.5c-0.2,0.6-0.2,1.2-0.2,1.6c0,0.1,0,0.1,0,0.2c-0.5,2.1-0.8,4.1-1.1,6.1
		c0,0.2,0,0.4,0,0.6c-0.3,1.6-0.7,3.3-0.9,5c-0.2,0.8-0.2,1.5-0.3,2.2c-0.1,0.4-0.1,0.9-0.2,1.2c-0.5,1.3-0.6,2.5-0.7,3.4
		c0,0.2-0.1,0.5-0.1,0.7c0,0,0,0.1,0,0.1c-0.2,0.7-0.3,1.3-0.3,1.7c-0.6,2.2-0.9,4.4-1.1,6c-0.1,0.3-0.1,0.6-0.2,0.9
		c-0.3,1.2-0.6,2.5-0.8,4c-0.1,0.5-0.2,1-0.2,1.4c-0.2,0.6-0.3,1.2-0.3,1.7c-0.4,1.2-0.5,2.3-0.6,3.1c0,0.2-0.1,0.5-0.1,0.7
		c0,0.2-0.1,0.4-0.1,0.6c-0.2,0.8-0.3,1.5-0.5,2.4c-0.4,1.2-0.5,2.3-0.6,3.2c0,0.1,0,0.2,0,0.3c-0.1,0.4-0.3,0.9-0.3,1.3
		c-0.2,0.4-0.3,0.9-0.4,1.5c-0.2,0.6-0.4,1.3-0.4,2.2c0,0.2-0.1,0.4-0.1,0.5c-0.1,0.4-0.2,0.9-0.3,1.3c-0.3,1.2-0.6,2.5-0.9,3.9
		c-0.2,0.4-0.3,0.9-0.3,1.5c-0.4,1-0.5,1.9-0.6,2.6c0,0.2-0.1,0.4-0.1,0.5c0,0.1,0,0.1,0,0.2c-0.2,0.6-0.3,1.2-0.5,1.8
		c-0.5,1.1-0.6,2.1-0.7,2.8c0,0,0,0.1,0,0.1c-0.1,0.4-0.2,0.7-0.3,1.1c-0.3,0.7-0.4,1.3-0.5,1.9c-0.3,0.6-0.5,1.3-0.5,2.1
		c-0.1,0.3-0.2,0.7-0.3,1c-0.4,1-0.6,1.9-0.7,2.6l-0.1,0.3c-0.2,0.7-0.4,1.3-0.5,1.9c-0.5,1.2-0.7,2.3-0.7,3.1c0,0.1,0,0.2,0,0.3
		c-0.5,1.4-0.8,3-1.1,4.7c0,0.1,0,0.1,0,0.2c-0.1,0.3-0.1,0.6-0.2,0.9c-0.2,0.8-0.4,1.7-0.6,2.6c-0.3,0.7-0.4,1.5-0.4,2.3
		c0,0.1-0.1,0.3-0.1,0.4c-0.2,0.5-0.2,1-0.2,1.4c-0.6,1.9-0.8,3.8-1,5.5c-0.1,0.7-0.2,1.5-0.3,2.1c-0.4,1.4-0.6,2.7-0.7,3.8
		c0,0.4-0.1,0.7-0.1,1.1c0,0.2,0,0.4-0.1,0.6c-0.2,0.8-0.2,1.5-0.2,2c-0.3,0.9-0.3,1.7-0.3,2.2c-0.2,0.6-0.3,1.4-0.3,2.2
		c-0.2,1.4-0.3,2.7-0.3,3.9c0,0.8,0,1.5-0.1,2.1c0,0.2,0,0.4,0,0.7c-0.1,0.9-0.2,1.8-0.3,2.7c-0.1,0.7-0.1,1.4-0.2,2.1
		c-0.2,1.4-0.3,2.8-0.3,4.1c0,0.9-0.1,1.7-0.2,2.6c-0.1,0.5,0,1,0.1,1.6c-0.4,1.6-0.3,3-0.3,4.1c0,0.3,0,0.6,0,0.8
		c-0.3,0.7-0.4,1.5-0.4,2.3c0.1,1.9-0.1,3.8-0.2,5.8c-0.1,2.5-0.3,5-0.2,7.7l0,0.2c-0.1,0.5-0.2,1-0.2,1.5c0.1,3,0.1,5.9,0,8.8
		c0,0.5,0,0.9,0.1,1.4c-0.1,2.7,0,5.3,0.2,7.8c0.1,1.7,0.2,3.2,0.2,4.8c-0.1,1.1,0,2,0.3,2.9c0,0.2,0,0.5,0,0.8c0,1-0.1,2.3,0.2,3.7
		c0,0.3,0,0.5,0,0.8c0.1,0.8,0.1,1.7,0.1,2.5c0.1,1.9,0.2,3.9,0.4,5.9c0.1,0.8,0.1,1.7,0.2,2.6c0,1.1,0.1,2.4,0.3,3.7
		c0,0.3,0,0.7,0.1,1c0,3.1,0.2,6,0.4,8.9c0.1,1.6,0.3,3.2,0.3,4.8c0,0.5,0,1,0.1,1.5c0,1.6,0.1,3.4,0.4,5.2c-0.1,0.6,0,1.2,0.1,1.9
		c0,0,0,0,0,0c0,0.3,0,0.6,0,0.9c0.1,3,0.4,5.9,0.7,8.7l0.2,1.5c0,0.1,0,0.2,0,0.3c0.1,0.8,0.1,1.7,0.2,2.6c0,1.2,0.1,2.5,0.3,3.8
		c0.2,1.5,0.3,2.9,0.5,4.5c0.1,1.1,0.2,2.2,0.3,3.3c-0.1,0.6,0,1.2,0.1,1.9c0,0.3,0,0.5,0,0.8c0.1,2.2,0.4,4.3,0.7,6.3
		c0.1,0.6,0.2,1.1,0.2,1.7c0,0.2,0.1,0.4,0.1,0.6c0,0.6,0,1.5,0.2,2.5c0.2,2.5,0.6,4.9,1,7.3c0.3,2.8,0.8,5.4,1.3,7.9
		c0,0.2,0,0.5,0.1,0.7c0,0.2,0.1,0.5,0.1,0.7c0.1,0.8,0.3,1.9,0.6,3.1c0,0.7,0.1,1.3,0.3,1.9c0,0.6,0.1,1.3,0.4,2.1
		c0.1,0.5,0.2,1,0.3,1.4c0.1,0.5,0.2,0.9,0.3,1.3c0.1,0.5,0.2,1,0.4,1.5c0.3,1.3,0.6,2.4,1,3.4c0.1,0.4,0.2,0.8,0.3,1.2
		c0.1,0.8,0.3,1.4,0.6,1.9c0.1,0.3,0.2,0.7,0.4,1c0.1,0.8,0.3,1.4,0.6,2c0.1,0.5,0.3,1,0.6,1.6c0.1,0.2,0.1,0.4,0.2,0.5
		c0.1,0.5,0.3,1,0.6,1.4c0.1,0.3,0.2,0.5,0.3,0.7c0,0.1,0.1,0.1,0.1,0.2c0.1,0.5,0.3,1,0.6,1.4c0.1,0.3,0.2,0.5,0.4,0.8
		c0.1,0.2,0.2,0.4,0.3,0.6c0.1,0.2,0.2,0.5,0.3,0.7c0.1,0.2,0.2,0.5,0.3,0.7c0.2,0.4,0.4,0.8,0.6,1.1c0.2,0.5,0.6,1.2,1,1.9
		c0.2,0.4,0.4,0.7,0.6,1c0.4,0.8,0.8,1.4,1.2,1.9c0.1,0.3,0.3,0.6,0.5,0.8c0.2,0.3,0.4,0.7,0.7,1.1c0.2,0.3,0.4,0.7,0.8,1.1
		c0.3,0.6,0.7,1,1,1.3c0.3,0.5,0.7,1,1,1.3c0.3,0.5,0.7,1,1.1,1.4c0.2,0.2,0.3,0.4,0.5,0.6c0.4,0.6,0.8,1,1.1,1.3
		c0.6,0.9,1.2,1.5,1.7,2c0.2,0.3,0.5,0.6,0.8,0.9c0,0,0.1,0.1,0.1,0.1c0.5,0.7,1,1.2,1.5,1.7c0.2,0.3,0.5,0.7,0.8,0.9
		c0.1,0.1,0.1,0.1,0.2,0.2c0.1,0.2,0.3,0.3,0.5,0.5c0.1,0.1,0.2,0.2,0.3,0.3c0,0,0.1,0.1,0.1,0.1c0.8,1,1.6,1.8,2.3,2.5
		c0.1,0.1,0.2,0.2,0.3,0.3c0.3,0.4,0.5,0.7,0.9,1c0.1,0.1,0.2,0.2,0.3,0.3c0.1,0.1,0.2,0.2,0.3,0.3c0.1,0.1,0.3,0.3,0.4,0.4
		c0.1,0.1,0.1,0.1,0.2,0.2c0.1,0.2,0.3,0.3,0.4,0.4c0.1,0.1,0.1,0.1,0.2,0.2c0.1,0.1,0.3,0.3,0.4,0.4c0.3,0.3,0.7,0.6,1.1,0.9
		c0.5,0.5,1.1,1.1,1.9,1.7c0,0,0.1,0.1,0.1,0.1c0.1,0.1,0.2,0.2,0.3,0.3c0.3,0.3,0.6,0.6,0.9,0.8c0.4,0.3,0.7,0.6,1.1,0.9
		c0.3,0.3,0.6,0.6,1,0.8c0.3,0.3,0.6,0.5,0.8,0.6c0.2,0.1,0.3,0.3,0.5,0.4c0.3,0.3,0.7,0.6,1.1,0.9c0.2,0.2,0.4,0.3,0.6,0.4
		c0.3,0.3,0.6,0.5,0.9,0.7c0.1,0.1,0.3,0.2,0.4,0.3c0.4,0.4,0.9,0.7,1.2,0.9c0.3,0.3,0.7,0.6,1.3,1c0.4,0.3,0.7,0.5,1.1,0.7
		c0.1,0.1,0.2,0.2,0.4,0.2c0.3,0.3,0.6,0.5,1,0.8c0.4,0.3,0.7,0.5,1,0.7c0.4,0.3,0.7,0.5,0.9,0.6c0.3,0.2,0.5,0.4,0.7,0.5
		c0.2,0.2,0.4,0.3,0.5,0.4c0.3,0.2,0.5,0.4,0.8,0.6c0,0,0.1,0,0.1,0.1c0.3,0.2,0.6,0.4,0.9,0.6c0,0,0,0,0.1,0c0.4,0.4,0.9,0.7,1.4,1
		c0.1,0.1,0.3,0.2,0.4,0.3c0.1,0.1,0.2,0.2,0.4,0.2c0.3,0.2,0.6,0.4,0.9,0.6c0.3,0.2,0.5,0.3,0.7,0.5c0.4,0.3,0.8,0.5,1.1,0.7
		c0.3,0.2,0.5,0.4,0.9,0.5c0.2,0.2,0.5,0.3,0.7,0.4c0.4,0.3,0.7,0.5,1.1,0.7c0.3,0.2,0.6,0.4,0.9,0.5c0.3,0.2,0.5,0.3,0.8,0.5
		c0.3,0.2,0.6,0.4,0.9,0.5c0.2,0.2,0.5,0.4,0.9,0.5c0.3,0.2,0.6,0.4,0.9,0.5c0.1,0.1,0.2,0.1,0.3,0.2c0.1,0,0.1,0.1,0.2,0.1
		c0.4,0.3,0.8,0.5,1.2,0.7c0.2,0.1,0.3,0.2,0.5,0.3c0.2,0.2,0.5,0.4,0.9,0.5c0.3,0.2,0.6,0.4,0.9,0.5c0.5,0.3,1,0.6,1.3,0.8
		c0.3,0.2,0.6,0.4,1,0.6c0.5,0.3,1,0.6,1.3,0.8c0.3,0.2,0.7,0.4,1.1,0.6c0.7,0.5,1.3,0.8,1.9,1c0.3,0.2,0.7,0.5,1.1,0.6
		c0.2,0.1,0.4,0.2,0.7,0.3c0.2,0.1,0.5,0.3,0.7,0.4c1.1,0.7,2.3,1.2,3.3,1.7l0.5,0.2c1.5,0.8,2.8,1.5,4.1,2c0.2,0.1,0.5,0.3,0.7,0.4
		c0.3,0.2,0.6,0.3,0.9,0.4c0.6,0.3,1.1,0.5,1.5,0.6c0.2,0.1,0.4,0.2,0.7,0.3c0.5,0.3,1,0.5,1.6,0.6c0.4,0.2,0.8,0.3,1.1,0.4
		c0.4,0.2,0.9,0.4,1.5,0.6c0.3,0.1,0.6,0.2,1,0.3c0.3,0.1,0.7,0.3,1.1,0.4c1,0.4,1.8,0.6,2.5,0.8c0.4,0.2,0.8,0.3,1.3,0.3
		c1.4,0.5,2.8,0.8,4,1c0,0,0.1,0,0.1,0c0.4,0.2,0.9,0.3,1.4,0.3c0.5,0.2,0.9,0.3,1.5,0.3c0.6,0.2,1.3,0.4,2.1,0.4
		c0.5,0.2,1,0.3,1.6,0.3c0.5,0.2,1,0.3,1.6,0.3c1.3,0.4,2.4,0.6,3.3,0.6c0.2,0,0.3,0,0.5,0.1c0.8,0.3,1.5,0.3,2,0.3
		c1.2,0.3,2.3,0.4,3.2,0.6c0.2,0,0.4,0,0.5,0.1c1.3,0.4,2.5,0.4,3.2,0.3c0.1,0,0.3,0.1,0.4,0.1c2.7,0.5,5.2,0.8,7.7,1l0.7,0.1
		c0.3,0,0.5,0,0.8,0c1.2,0.3,2.2,0.2,2.8,0.2l0.1,0c4.8,0.8,9.6,1.1,14.5,1c0.3,0,0.5,0,0.8,0c0,0,0.1,0,0.1,0
		c0.3,0.1,0.6,0.1,0.9,0.1c1.2,0.2,2.5,0.3,3.7,0.3c1.3,0,2.6-0.1,4-0.3c0.2,0,0.5-0.1,0.7-0.1c0.1,0,0.1,0,0.2,0c0.2,0,0.4,0,0.7,0
		c3.8,0.1,7.5-0.4,10.9-1c0.1,0,0.2,0,0.2,0c0.5,0,1.2,0,2-0.2c0.2,0,0.4,0,0.6,0c2.2-0.2,4.1-0.6,6.1-1c0.5-0.1,0.9-0.2,1.4-0.3
		c0.3,0,0.6,0,0.9-0.1c0.2,0,0.3-0.1,0.5-0.1c0.7-0.1,1.7-0.3,2.7-0.7c0.4-0.1,0.7-0.1,1-0.3c0.7-0.1,1.3-0.2,1.9-0.5
		c0.4-0.1,0.8-0.2,1.1-0.4c0.4-0.1,0.7-0.2,1-0.3c0.4-0.1,0.7-0.2,1-0.3c0.5-0.1,1.2-0.4,1.9-0.7c0.4-0.1,0.8-0.2,1.2-0.4
		c0.5-0.1,1-0.3,1.5-0.6c0.3-0.1,0.5-0.2,0.7-0.3c0.2-0.1,0.4-0.2,0.7-0.3c0.1,0,0.1-0.1,0.2-0.1c0.6-0.2,1-0.4,1.5-0.6
		c0.3-0.1,0.5-0.2,0.7-0.4c0.2-0.1,0.5-0.2,0.7-0.3c0.2-0.1,0.5-0.2,0.7-0.3c0.2-0.1,0.4-0.2,0.6-0.3c0.2-0.1,0.4-0.2,0.6-0.3
		c0.4-0.2,0.8-0.4,1.1-0.6c0.4-0.2,0.9-0.5,1.4-0.8c0.2-0.1,0.4-0.2,0.5-0.3c0.4-0.2,0.7-0.3,1-0.6c0.4-0.2,0.8-0.5,1.2-0.8
		c0.4-0.2,1.1-0.5,1.7-1.1c0.1-0.1,0.2-0.1,0.3-0.2c0.2-0.1,0.4-0.2,0.6-0.3c0.5-0.3,1-0.6,1.3-0.9c0.1-0.1,0.3-0.2,0.4-0.3
		c0.3-0.2,0.6-0.4,1-0.7c0.1-0.1,0.3-0.2,0.4-0.3c0.3-0.2,0.6-0.4,1-0.7c0.1-0.1,0.2-0.2,0.4-0.3c0.3-0.2,0.6-0.4,1-0.7
		c0.2-0.1,0.3-0.2,0.5-0.4c0.4-0.3,0.8-0.6,1.1-0.9c0.2-0.1,0.4-0.3,0.6-0.5c0.5-0.4,1-0.8,1.4-1.2c0.3-0.2,0.7-0.5,1-0.8
		c0.1-0.1,0.2-0.2,0.3-0.3c0.1-0.1,0.3-0.3,0.4-0.4c0,0,0,0,0,0l0,0c0.3-0.2,0.6-0.5,1-0.8c0.2-0.2,0.5-0.4,0.7-0.6
		c0.8-0.6,1.4-1.2,1.9-1.7c0.4-0.3,0.7-0.6,1.1-0.9c0.1-0.1,0.2-0.1,0.2-0.2c0,0,0.1-0.1,0.1-0.1c0.7-0.5,1.3-1.1,1.7-1.5
		c1.2-0.7,2-1.6,2.5-2.2c0,0,0,0,0,0c0.4-0.3,0.8-0.6,1.1-1c0.1-0.1,0.1-0.1,0.2-0.2c0.1-0.1,0.3-0.3,0.4-0.4
		c0.5-0.4,1.1-0.9,1.5-1.5c0.6-0.4,1.1-1,1.5-1.6c0.4-0.3,0.7-0.6,0.9-0.9c0.6-0.5,1.1-1,1.5-1.5c0.2-0.2,0.5-0.5,0.7-0.7
		c0.6-0.5,1.1-1,1.6-1.6c0.1-0.1,0.2-0.2,0.3-0.3c0.1-0.1,0.2-0.2,0.3-0.3c0.4-0.3,0.7-0.7,0.9-1.1c0.6-0.5,1.3-1.3,1.9-2.3
		c0.4-0.4,0.9-0.9,1.4-1.6c0.1-0.1,0.1-0.1,0.2-0.2c0.2-0.2,0.4-0.5,0.6-0.7c0.3-0.3,0.5-0.6,0.7-0.9c0.1-0.1,0.2-0.2,0.3-0.3
		c0.3-0.3,0.6-0.6,0.8-1c0.4-0.4,0.9-0.9,1.3-1.7c0.3-0.4,0.6-0.7,0.8-1c0.3-0.3,0.6-0.6,0.8-0.9c0.3-0.3,0.5-0.6,0.6-0.9
		c0.3-0.3,0.6-0.6,0.8-0.9c0.1-0.2,0.3-0.4,0.4-0.6c0.2-0.2,0.3-0.4,0.5-0.6c0.3-0.4,0.5-0.7,0.7-1c0.1-0.1,0.2-0.3,0.4-0.5
		c0.3-0.3,0.6-0.7,0.9-1.1c0.2-0.2,0.3-0.4,0.4-0.5c0.3-0.3,0.5-0.6,0.7-0.9c0.1-0.2,0.3-0.3,0.4-0.5c0.7-0.8,1.2-1.5,1.5-2.2
		c0.3-0.3,0.5-0.7,0.7-0.9c0.3-0.3,0.6-0.6,0.8-1c0.2-0.2,0.3-0.5,0.5-0.7c0,0,0.1-0.1,0.1-0.1c0.7-0.8,1.2-1.6,1.5-2.2
		c0.3-0.3,0.5-0.7,0.6-1c0.3-0.4,0.5-0.7,0.7-1c0.3-0.4,0.5-0.7,0.7-1c0.3-0.3,0.5-0.7,0.7-1c0.3-0.3,0.5-0.7,0.7-1
		c0.3-0.4,0.5-0.8,0.8-1.2c0.2-0.2,0.3-0.5,0.5-0.8c0.2-0.3,0.4-0.5,0.5-0.8c0.2-0.3,0.3-0.5,0.5-0.9c0.2-0.2,0.3-0.4,0.4-0.7
		c0.5-0.6,0.7-1.2,0.9-1.6c0.2-0.3,0.5-0.7,0.7-1.1c0.4-0.6,0.7-1.2,0.8-1.6c0.1-0.1,0.1-0.3,0.2-0.4c0.1-0.2,0.3-0.5,0.5-0.8
		c0.2-0.3,0.4-0.7,0.6-1.1c0.1-0.2,0.2-0.4,0.3-0.6c0.1-0.2,0.2-0.4,0.3-0.6c0.1-0.2,0.3-0.5,0.4-0.7c0.1-0.2,0.2-0.4,0.3-0.6
		c0.1-0.2,0.2-0.4,0.3-0.5c0.4-0.6,0.7-1.2,0.8-1.7c0.1-0.2,0.2-0.3,0.2-0.5c0.1-0.2,0.2-0.4,0.3-0.7c0.2-0.3,0.4-0.7,0.5-1.2
		c0.4-0.7,0.6-1.3,0.8-1.9c0.3-0.4,0.5-0.9,0.6-1.5c0-0.1,0-0.1,0.1-0.2c0.2-0.4,0.4-0.8,0.5-1.1c0.5-0.9,0.7-1.7,0.9-2.3
		c0-0.1,0-0.1,0.1-0.2c0.5-0.9,0.7-1.8,0.9-2.5c0.2-0.4,0.3-0.8,0.4-1.2c0.6-1.2,0.8-2.2,0.9-2.9l0,0c0.4-0.9,0.6-1.7,0.8-2.6
		c0.2-0.5,0.4-1,0.5-1.6c0.5-1.4,0.9-2.8,1.1-4.2l0.1-0.4c0.1-0.4,0.2-0.9,0.4-1.4c0.6-1.4,0.7-2.6,0.8-3.4c0-0.1,0-0.3,0-0.4
		c0-0.1,0-0.1,0-0.2c0.4-1.6,0.9-3.4,1.1-5.4c0-0.3,0-0.5,0-0.8c0.5-3,0.9-6.3,0.9-9.7c0-0.3,0-0.6,0-0.9c0-0.2,0-0.3,0-0.5
		C408.5,373.2,408.5,372.6,408.5,372z M402.1,375.2c0,3-0.4,6-0.8,9c-0.2,0.3-0.2,0.6,0,0.8c-0.2,1.6-0.6,3.2-1,4.8l0,0
		c-0.3,1.1-0.1,2.3-0.7,3.3l0,0c-0.2,0.8-0.4,1.6-0.6,2.4l-0.1,0.1l0.1,0.1c-0.2,1.3-0.5,2.5-1,3.8l0,0c-0.2,0.3,0,0.8-0.3,1.1
		c-0.3,1-0.5,2-1,3l-0.1,0.1l0,0.1c-0.2,0.7-0.1,1.5-0.7,2.1c-0.1,0.6-0.3,1.2-0.6,1.7l-0.1,0.1l0,0.1c-0.1,0.6-0.3,1.2-0.7,1.8
		c-0.4,0.9-0.5,1.9-1,2.7l0,0c-0.1,0.2-0.1,0.5-0.3,0.7l0,0c-0.2,0.2-0.1,0.5-0.3,0.7l-0.1,0.1l0,0.1c-0.1,0.3-0.1,0.6-0.3,0.8
		c-0.3,0.8-0.5,1.6-1.1,2.3l0,0c-0.1,0.3,0,0.6-0.3,0.7c-0.1,0.2-0.1,0.5-0.3,0.7c-0.1,0.2-0.1,0.5-0.3,0.7c-0.1,0.5-0.2,1-0.6,1.4
		c-0.1,0.2-0.1,0.5-0.3,0.7c-0.1,0.2-0.1,0.5-0.3,0.7c-0.1,0.2-0.1,0.5-0.3,0.7c-0.1,0.2-0.1,0.5-0.3,0.7c-0.1,0.2-0.1,0.5-0.4,0.6
		c-0.1,0.2-0.1,0.5-0.3,0.7c-0.1,0.4-0.4,0.7-0.6,1.1l0,0c-0.2,0.2-0.1,0.5-0.4,0.7c-0.2,0.4-0.2,1-0.7,1.3
		c-0.1,0.2-0.1,0.5-0.4,0.6c0,0.2-0.1,0.3-0.3,0.4l0,0c-0.3,0.4-0.2,1-0.7,1.3c-0.1,0.4-0.3,0.7-0.6,1c-0.2,0.2-0.1,0.5-0.4,0.6
		c-0.1,0.4-0.3,0.7-0.6,1c-0.1,0.2-0.1,0.5-0.4,0.6c-0.1,0.4-0.3,0.7-0.6,1c-0.2,0.4-0.3,0.7-0.7,1c-0.1,0.4-0.4,0.7-0.6,1
		c-0.2,0.3-0.4,0.7-0.7,1l0,0c-0.2,0.3-0.4,0.7-0.7,1c-0.2,0.4-0.4,0.7-0.7,1c-0.3,0.7-0.7,1.4-1.3,2c0,0.2-0.2,0.3-0.3,0.4
		c-0.2,0.2-0.1,0.5-0.4,0.6c0,0.2-0.1,0.3-0.3,0.4c0,0.2-0.2,0.3-0.3,0.4l0,0c-0.3,0.3-0.4,0.7-0.7,1c-0.5,0.8-1,1.6-1.7,2.3
		c0,0.2-0.1,0.3-0.3,0.4c-0.2,0.3-0.3,0.7-0.7,1c0,0.2-0.1,0.3-0.3,0.4c-0.2,0.5-0.6,0.9-1,1.3c0,0.2-0.2,0.3-0.3,0.4
		c-0.3,0.3-0.4,0.7-0.7,0.9c0,0.2-0.2,0.3-0.3,0.4c-0.1,0.1-0.2,0.2-0.3,0.4c-0.2,0.2-0.1,0.5-0.4,0.6c0,0.2-0.1,0.3-0.3,0.4
		c0,0.2-0.2,0.3-0.3,0.4c-0.2,0.3-0.3,0.8-0.7,0.9c0,0.2-0.1,0.3-0.3,0.4c0,0.2-0.1,0.3-0.3,0.4l0,0c-0.3,0.5-0.6,0.9-1.1,1.3
		c-0.2,0.7-0.8,1.1-1.3,1.6c0,0.2-0.1,0.3-0.3,0.4c-0.1,0.2-0.2,0.3-0.3,0.3c-0.1,0.1-0.2,0.3-0.3,0.3c-0.2,0.3-0.3,0.7-0.7,0.9
		c0,0.2-0.1,0.3-0.3,0.4c0,0.2-0.2,0.3-0.3,0.3c-0.4,0.8-1.1,1.3-1.7,2c-0.5,1-1.3,1.6-2,2.3c0,0.2-0.1,0.3-0.3,0.4
		c0,0.2-0.2,0.3-0.3,0.3c-0.1,0.2-0.2,0.3-0.3,0.3c-0.1,0.1-0.2,0.3-0.3,0.3c-0.2,0.5-0.6,0.8-1,1c-0.1,0.1-0.2,0.2-0.3,0.3l0,0
		c-0.1,0.3-0.4,0.5-0.7,0.7c-0.3,0.6-0.8,1-1.3,1.3c-0.2,0.3-0.4,0.5-0.7,0.6c-0.1,0.1-0.2,0.2-0.3,0.3l0,0
		c-0.1,0.1-0.2,0.2-0.3,0.4l0,0c-0.2,0.4-0.6,0.8-1,1l0,0c-0.1,0.1-0.2,0.2-0.3,0.3l0,0c-0.2,0.4-0.6,0.8-1,1
		c-0.1,0.1-0.2,0.3-0.3,0.3c-0.1,0.2-0.2,0.3-0.3,0.3c-0.1,0.2-0.2,0.3-0.4,0.3c0,0.2-0.2,0.3-0.4,0.3c-0.9,0.8-1.5,1.8-2.6,2.3
		c-0.6,0.6-1.2,1.3-1.9,1.7c-0.1,0.1-0.2,0.3-0.4,0.3c-0.1,0.2-0.2,0.3-0.4,0.3c0,0.2-0.2,0.3-0.4,0.3c-0.7,0.7-1.4,1.5-2.3,2
		c-0.1,0.2-0.2,0.3-0.4,0.3c-0.4,0.4-0.8,0.7-1.3,1.1c-0.1,0.1-0.2,0.2-0.4,0.3l0,0c-0.1,0.1-0.2,0.2-0.4,0.3
		c-0.1,0.1-0.2,0.3-0.4,0.3c-0.1,0.2-0.2,0.3-0.4,0.3c-0.5,0.5-1,1-1.6,1.4c-0.1,0.2-0.2,0.3-0.4,0.3c-0.4,0.4-0.8,0.8-1.3,1
		c-0.1,0.2-0.2,0.3-0.4,0.3c-0.2,0.3-0.6,0.5-0.9,0.7c-0.1,0.1-0.2,0.2-0.4,0.3c-0.2,0.3-0.6,0.5-1,0.7c-0.1,0.1-0.2,0.2-0.4,0.3
		c-0.2,0.4-0.6,0.5-1,0.7c-0.1,0.2-0.2,0.3-0.4,0.3c-0.2,0.4-0.6,0.5-1,0.7c-0.1,0.3-0.4,0.2-0.6,0.4c-0.1,0.1-0.2,0.3-0.4,0.3
		c-0.4,0.6-1.1,0.7-1.6,1c-0.3,0.3-0.6,0.5-1,0.6c-0.1,0.3-0.4,0.3-0.6,0.4c-0.1,0.3-0.4,0.2-0.6,0.4c-0.5,0.4-1.1,0.7-1.7,0.9
		c-0.1,0.3-0.4,0.3-0.7,0.3c-0.1,0.3-0.4,0.2-0.7,0.4c-0.1,0.3-0.4,0.2-0.7,0.3c-0.2,0.2-0.4,0.2-0.7,0.3c-0.2,0.3-0.5,0.2-0.7,0.3
		c-0.2,0.3-0.4,0.2-0.7,0.3c-0.2,0.3-0.5,0.2-0.8,0.3l-0.1,0l-0.1,0.1c-0.2,0.2-0.5,0.1-0.7,0.3l0,0c-0.2,0.2-0.5,0.2-0.7,0.3
		c-0.2,0.2-0.4,0.2-0.7,0.3c-0.2,0.4-0.7,0.1-1,0.4l0,0c-0.2,0.4-0.7,0.1-1,0.4c0,0,0,0,0,0l0,0c0,0,0,0,0,0
		c-0.6,0.3-1.2,0.5-1.8,0.6l-0.1-0.1l-0.1,0.1c-0.3,0.3-0.7,0.1-1,0.3l0,0c-0.3,0.3-0.7,0.1-1,0.3c-0.3,0.3-0.7,0.1-1,0.3
		c-0.4,0.4-1,0.1-1.5,0.4l-0.1,0l-0.1,0.1c-0.3,0.3-0.7,0.1-1.1,0.3l0,0c-0.9,0.4-1.8,0.5-2.7,0.7c-0.2-0.1-0.4-0.1-0.6,0
		c-2.4,0.5-4.7,1.1-7.2,1.3c-0.4-0.1-0.8-0.2-1.2,0c-0.7,0.4-1.4,0-2.1,0.3l0,0c-3.3,0.6-6.6,1-9.9,0.9c-0.8,0-1.6-0.2-2.4,0.1l0,0
		c-2.2,0.3-4.4,0.3-6.6,0l0,0c-0.8-0.3-1.5-0.1-2.3-0.1c-4.6,0.1-9.2-0.3-13.8-1c-0.9-0.1-1.8,0.2-2.6-0.2c-0.4-0.2-0.8-0.2-1.2,0
		c-2.7-0.2-5.5-0.5-8.2-1l0,0c-1-0.4-2,0.2-3-0.3c-1.3-0.2-2.7-0.3-4-0.7c0,0,0,0,0,0l0,0c0,0,0,0,0,0c-0.5-0.3-1.2,0.1-1.7-0.3
		l-0.1-0.1l-0.1,0.1c-1.3-0.2-2.6-0.2-3.8-0.7l0,0c-0.4-0.3-1,0.1-1.4-0.3l0,0c-0.5-0.4-1.2,0.1-1.7-0.3l-0.1-0.1l-0.1,0.1
		c-0.5-0.3-1.2,0.1-1.7-0.4c-0.4-0.2-1,0.1-1.4-0.3l0,0c-0.4-0.3-1,0-1.4-0.3c-1.5-0.3-2.9-0.4-4.3-1.1l0,0c-0.3-0.2-0.8,0-1.1-0.3
		l-0.1-0.1l-0.1,0c-0.7-0.2-1.5-0.2-2.1-0.7l0,0c0,0,0,0,0,0c0,0,0,0,0,0l0,0c-0.3-0.3-0.8,0-1-0.4l0,0c-0.3-0.3-0.8,0-1-0.3l0,0
		c-0.3-0.3-0.8,0-1-0.3c-0.6-0.2-1.2-0.3-1.7-0.6l0,0c-0.3-0.3-0.8,0-1-0.4c-0.2-0.1-0.5-0.1-0.7-0.3c-0.5-0.3-1.2-0.3-1.6-0.7
		c-0.2-0.1-0.5-0.1-0.7-0.3c-0.2-0.1-0.5-0.1-0.7-0.3c-1.5-0.6-2.9-1.3-4.3-2.1l0,0c-1.3-0.6-2.6-1.2-3.7-2
		c-0.2-0.1-0.5-0.1-0.7-0.3c-0.2-0.1-0.5-0.1-0.7-0.3c-0.2-0.1-0.5-0.1-0.6-0.4c-0.8-0.4-1.7-0.7-2.4-1.3c-0.2-0.1-0.5-0.1-0.7-0.4
		c-0.6-0.3-1.2-0.5-1.7-1c-0.2-0.1-0.5-0.1-0.6-0.4c-0.6-0.3-1.2-0.5-1.7-1c-0.2-0.1-0.5-0.1-0.6-0.4c-0.4-0.1-0.7-0.4-1-0.6
		c-0.2-0.2-0.5-0.1-0.6-0.4c-0.2-0.1-0.5-0.1-0.6-0.4c-0.2,0-0.3-0.1-0.4-0.3l0,0c-0.2-0.2-0.5-0.1-0.7-0.4
		c-0.2-0.1-0.5-0.1-0.6-0.4c-0.4-0.1-0.7-0.4-1.1-0.6l0,0c-0.2-0.2-0.5-0.1-0.6-0.4c-0.4-0.1-0.7-0.4-1-0.6
		c-0.2-0.2-0.5-0.1-0.6-0.4c-0.4-0.1-0.7-0.3-1-0.6c-0.4-0.2-0.7-0.4-1-0.7l0,0c-0.2-0.2-0.5-0.1-0.6-0.4c-0.4-0.2-0.7-0.3-1-0.7
		c-0.4-0.2-0.7-0.4-1-0.6c-0.2-0.1-0.5-0.1-0.6-0.4c-0.2,0-0.3-0.1-0.4-0.3c-0.2-0.2-0.5-0.1-0.6-0.4c-0.4-0.1-0.8-0.3-1-0.7
		c-0.2,0-0.3-0.1-0.4-0.3c-0.2-0.2-0.5-0.1-0.6-0.4c-0.2,0-0.3-0.1-0.4-0.3c-0.2-0.2-0.5-0.1-0.6-0.4c-0.2,0-0.3-0.1-0.4-0.3
		c-0.4-0.2-0.7-0.4-1-0.7c-0.3-0.2-0.7-0.4-1-0.7c-0.4-0.2-0.7-0.3-1-0.7c-0.4-0.1-0.5-0.4-0.7-0.6l0,0c-0.1-0.2-0.5-0.1-0.6-0.4
		c-0.4-0.2-0.7-0.3-1-0.7c-0.6-0.2-0.9-0.6-1.3-1c-0.3-0.2-0.8-0.3-1-0.7c-0.2,0-0.3-0.1-0.4-0.3c-0.3-0.2-0.7-0.3-0.9-0.7
		c-0.2,0-0.3-0.1-0.4-0.3c-0.5-0.2-0.9-0.6-1.3-1c-0.2,0-0.3-0.2-0.4-0.3c-0.3-0.2-0.7-0.3-0.9-0.7c-0.2,0-0.3-0.1-0.4-0.3
		c-0.2,0-0.3-0.2-0.4-0.3c-0.5-0.3-0.9-0.6-1.3-1c-0.2,0-0.3-0.1-0.4-0.3c-0.2,0-0.3-0.2-0.3-0.3c-0.2-0.1-0.3-0.2-0.4-0.3
		c-0.9-0.5-1.5-1.3-2.2-2c-0.2,0-0.3-0.1-0.4-0.3c-0.2,0-0.3-0.1-0.3-0.3c-0.2,0-0.3-0.1-0.3-0.3c-0.2,0-0.3-0.1-0.3-0.3
		c-0.2,0-0.3-0.2-0.3-0.3c-0.2,0-0.3-0.2-0.3-0.3c-0.2,0-0.3-0.2-0.3-0.3c-0.2,0-0.3-0.1-0.3-0.3c-0.2,0-0.3-0.1-0.3-0.4l0,0
		c-1-1.1-2.2-2-3.1-3.3c-0.1-0.1-0.2-0.2-0.3-0.3c-0.1-0.1-0.3-0.2-0.3-0.4c-0.2-0.1-0.3-0.2-0.3-0.3c-0.2,0-0.3-0.2-0.3-0.3
		c-0.2,0-0.3-0.1-0.3-0.4c-0.6-0.6-1.3-1.2-1.7-1.9c-0.2-0.1-0.3-0.2-0.3-0.3c-0.2-0.1-0.3-0.2-0.3-0.4c-0.6-0.6-1.3-1.2-1.7-2
		c-0.5-0.5-1-1-1.3-1.6c-0.2-0.1-0.3-0.2-0.3-0.4c-0.4-0.4-0.8-0.8-1-1.3c-0.4-0.4-0.8-0.8-1-1.3c-0.4-0.4-0.8-0.8-0.9-1.4
		c-0.4-0.2-0.5-0.6-0.7-1c-0.3-0.3-0.5-0.6-0.7-1c-0.3-0.1-0.2-0.4-0.4-0.6c-0.5-0.6-1-1.3-1.3-2.1c-0.3-0.1-0.2-0.4-0.4-0.7
		c-0.6-0.7-0.9-1.5-1.3-2.3c-0.3-0.1-0.2-0.4-0.3-0.7c-0.3-0.1-0.2-0.4-0.3-0.7c-0.3-0.1-0.2-0.4-0.3-0.7c-0.3-0.1-0.2-0.4-0.3-0.7
		c-0.3-0.1-0.2-0.4-0.3-0.7c-0.4-0.2-0.1-0.7-0.4-0.9l0,0c-0.2-0.2-0.2-0.5-0.3-0.7c-0.2-0.2-0.2-0.5-0.3-0.7
		c-0.4-0.2-0.1-0.7-0.4-1l0,0c-0.2-0.2-0.2-0.5-0.3-0.7c-0.4-0.5-0.5-1.1-0.7-1.7c-0.5-0.3,0-0.9-0.4-1.3l0,0
		c-0.2-0.6-0.4-1.1-0.6-1.7c-0.4-0.3-0.1-0.8-0.4-1.1l0.1-0.1l-0.1-0.1c-0.3-0.3-0.1-0.7-0.3-1c0,0,0,0,0,0l0,0c0,0,0,0,0,0
		c-0.4-1.2-0.8-2.4-1-3.6c-0.4-0.4,0-1-0.3-1.4l0,0c-0.5-0.4-0.1-0.9-0.3-1.3c-0.4-0.4-0.1-0.9-0.3-1.3c-0.5-0.6,0-1.4-0.4-2l0,0
		c-0.5-0.5,0-1.2-0.3-1.7l0,0c-0.5-1.1-0.5-2.3-0.7-3.5c0.1-0.2,0.1-0.3,0-0.5c-0.5-2.7-1.1-5.3-1.3-8l0,0c-0.4-2.4-0.9-4.7-1-7.1
		c0.1-0.2,0.1-0.4,0-0.5c-0.5-0.9,0.1-1.8-0.3-2.7l0,0c-0.3-2.6-0.8-5.1-0.9-7.7c0-0.6,0.1-1.2-0.2-1.8c0.2-0.4,0.2-0.8,0-1.1
		c-0.3-2.7-0.5-5.3-0.9-8c-0.3-2.1-0.2-4.3-0.5-6.4l0,0c-0.4-3.3-0.8-6.7-0.9-10c0-0.7,0.1-1.4-0.1-2.1c0.2-0.4,0.2-0.8,0-1.1
		c-0.4-2.1-0.4-4.3-0.5-6.4c-0.2-4.7-0.9-9.3-0.8-14c0-0.2-0.1-0.3-0.1-0.5l0.1-0.1l0-0.1c-0.4-2.2-0.2-4.5-0.5-6.7
		c-0.3-2.7-0.3-5.4-0.5-8.1c0.2-0.4,0.1-0.8,0-1.2c-0.5-1.8,0.1-3.6-0.3-5.4c-0.3-0.4-0.2-0.8-0.2-1.2c0-4.4-0.6-8.7-0.3-13.1
		c0-0.3,0-0.6-0.1-0.8c0.1-3.1,0.1-6.2,0-9.3c0.2-0.6,0.2-1.2,0.1-1.8c-0.2-4.5,0.5-8.9,0.3-13.4c0-0.2,0-0.4,0.2-0.6
		c0.4-1.8-0.2-3.6,0.3-5.4c0.2-0.7,0.2-1.4,0-2.1c0.2-2.2,0.2-4.4,0.5-6.5c0.2-1.8,0.3-3.6,0.6-5.3l0-0.1l-0.1-0.1
		c0.3-2.1,0.1-4.2,0.5-6.3c0.1-0.4-0.2-0.9,0.2-1.2c0.3-0.8-0.1-1.6,0.3-2.4c0.4-0.7-0.1-1.6,0.3-2.4c0.2-0.3,0.2-0.6,0-0.8
		c0.2-1.5,0.2-3,0.7-4.5l0,0c0.5-2.6,0.5-5.2,1.4-7.7l0,0c0.3-0.4-0.1-1,0.3-1.4c0.1-0.2,0.2-0.3,0-0.5c0.3-0.6-0.1-1.3,0.4-1.8
		c0.2-1.5,0.6-2.9,1-4.4l0.1-0.1l-0.1-0.1c0.2-1.4,0.5-2.8,1-4.1l0,0c0.3-1,0.1-2.1,0.7-3l0,0c0.2-0.8,0.4-1.6,0.6-2.4l0.1-0.1
		l-0.1-0.1c0.2-0.8,0.3-1.7,0.7-2.5l0,0c0.2-0.3,0-0.8,0.3-1.1l0,0c0.4-0.5-0.1-1.2,0.4-1.6c0.2-0.8,0.3-1.6,0.7-2.4l0,0
		c0.2-0.3,0-0.8,0.3-1.1l0.1-0.1l0-0.1c0.2-0.9,0.2-1.9,0.7-2.8l0,0c0.1-0.8,0.4-1.6,0.6-2.4l0.1-0.1l-0.1-0.1
		c0.2-0.9,0.3-1.9,0.7-2.7c0,0,0,0,0,0l0,0c0,0,0,0,0,0c0.3-0.4-0.1-1,0.3-1.3c0.3-2,0.9-4,1.3-6l0.1-0.1l-0.1-0.1
		c0.3-0.5-0.1-1.3,0.4-1.7c0.2-0.4-0.1-1,0.3-1.4c0.2-0.4-0.1-1,0.3-1.3c0.2-1.2,0.2-2.5,0.7-3.7l0,0c0.2-1,0.4-2.1,0.6-3.1
		c0.1-0.2,0.2-0.3,0-0.5c0.2-1.2,0.2-2.4,0.7-3.5l0,0c0.2-0.4-0.1-1,0.3-1.4l0,0c0.4-0.5-0.1-1.2,0.3-1.7c0.1-0.2,0.1-0.3,0-0.5
		c0.1-1.6,0.6-3.2,1-4.8l0.1-0.1l0-0.1c0.2-1.9,0.5-3.7,1-5.5c0,0,0,0,0,0l0,0c0,0,0,0,0,0c0.3-0.5-0.1-1.2,0.3-1.7
		c0.1-0.2,0.1-0.3,0-0.5c0.2-1.2,0.2-2.4,0.7-3.5l0,0c0.3-1.3,0.3-2.7,0.7-4.1l0,0c0.3-1.8,0.6-3.6,1-5.4c0.1-0.2,0.1-0.3,0-0.5
		c0.2-2,0.6-3.9,1-5.8c0,0,0,0,0,0l0,0c0,0,0,0,0,0c0.3-0.5-0.1-1.2,0.3-1.7c0.1-0.3,0.1-0.6,0-0.8c0.2-1.3,0.3-2.6,0.7-3.8l0,0
		c0.4-0.6-0.1-1.4,0.3-2c0.2-2.2,0.4-4.5,1-6.7l0,0c0.3-0.5-0.1-1.2,0.3-1.7c0.2-0.3,0.2-0.5,0-0.8c0.2-2,0.6-3.9,1-5.8l0,0
		c0.2-2.2,0.5-4.5,1-6.7c0,0,0,0,0,0l0,0c0,0,0,0,0,0c0.4-0.6-0.1-1.4,0.3-2c0.2-0.3,0.2-0.5,0-0.8c0.3-2.1,0.6-4.1,1-6.2
		c0,0,0,0,0,0l0,0c0,0,0,0,0,0c0.4-0.6-0.1-1.4,0.3-2c0.1-0.3,0.1-0.6,0-0.8c0.2-2,0.6-3.9,1-5.8l0.1-0.1l-0.1-0.1
		c0.1-2.2,0.5-4.4,1-6.5c0,0,0,0,0,0l0,0c0,0,0,0,0,0c0.4-0.6-0.1-1.4,0.3-2c0.2-0.3,0.2-0.5,0-0.8c0.2-2,0.6-3.9,1-5.8l0,0
		c0.4-0.8-0.2-1.9,0.4-2.7l0,0c0.2-1,0.3-2.1,0.6-3c0,0,0,0,0,0l0,0c0,0,0,0,0,0c0.3-0.4-0.1-1,0.3-1.4l0.1-0.1l-0.1-0.1
		c0.3-0.5-0.1-1.3,0.4-1.8c0.2-0.8,0.4-1.6,0.6-2.4c0,0,0,0,0,0l0,0c0,0,0,0,0,0c0.4-0.4-0.1-1,0.4-1.4l0.1-0.1l0-0.1
		c0.2-0.4,0-0.8,0.4-1.1c0.2-0.3,0-0.8,0.3-1c0.2-0.3,0-0.7,0.3-1c0.3-1,0.5-2.1,1-3c0.1-0.2,0.1-0.5,0.3-0.7l0.1-0.1l0-0.1
		c0.2-0.6,0.3-1.2,0.6-1.8c0.3-0.6,0.3-1.2,0.7-1.7c0.2-0.5,0.3-1.2,0.7-1.6c0.1-0.2,0.1-0.5,0.3-0.7c0.3-0.8,0.6-1.6,1.1-2.3l0,0
		c0.1-0.3,0-0.6,0.3-0.7c0.1-0.2,0.1-0.5,0.3-0.7c0.1-0.2,0.1-0.5,0.3-0.7c0.4-0.8,0.7-1.7,1.3-2.3c0.1-0.2,0.1-0.5,0.4-0.6
		c0.1-0.4,0.3-0.7,0.6-1c0.1-0.2,0.1-0.5,0.4-0.6c0-0.2,0.1-0.3,0.3-0.4l0,0c0.4-0.5,0.5-1.2,1.1-1.6c0-0.2,0.1-0.3,0.3-0.4
		c0.2-0.3,0.3-0.7,0.7-1c0-0.2,0.2-0.3,0.3-0.4c0.3-0.7,0.8-1.1,1.3-1.6c0-0.2,0.1-0.3,0.3-0.4c0.1-0.2,0.2-0.3,0.3-0.4l0,0
		c0.1-0.2,0.2-0.3,0.4-0.4l0,0c0.1-0.2,0.2-0.3,0.4-0.4l0,0c0.1-0.1,0.2-0.3,0.4-0.3c0.1-0.2,0.2-0.3,0.4-0.3
		c0.5-0.5,0.9-1.1,1.6-1.3c0.1-0.2,0.2-0.3,0.4-0.3c0.1-0.3,0.4-0.2,0.6-0.4c0.1-0.1,0.2-0.3,0.4-0.3c0.4-0.5,1.1-0.7,1.6-1
		c0.1-0.3,0.4-0.2,0.7-0.4c0.2-0.3,0.4-0.2,0.7-0.3c0.1-0.3,0.4-0.2,0.7-0.3c0.2-0.4,0.7-0.1,1-0.4l0,0c0.7-0.6,1.6-0.5,2.5-0.7
		c0.3,0.1,0.6,0.1,0.8,0c2.2-0.3,4.4-0.3,6.7,0c0.2,0.1,0.3,0.1,0.5,0c0.8,0.2,1.7,0.1,2.5,0.7c0.2,0.2,0.5,0.1,0.6,0.4
		c0.4,0.1,0.8,0.3,1,0.7c0.2,0,0.3,0.1,0.4,0.3c0.2,0.2,0.5,0.1,0.6,0.4c0.4,0.1,0.7,0.4,1,0.6c0.3,0.2,0.7,0.4,1,0.7
		c0.5,0.2,0.9,0.6,1.3,1c0.2,0,0.3,0.1,0.4,0.3c0.5,0.3,0.9,0.6,1.3,1c0.2,0,0.3,0.2,0.4,0.3c0.5,0.2,0.8,0.5,1,1
		c0.2,0.1,0.3,0.2,0.3,0.4c0.3,0.2,0.5,0.6,0.7,1c0.4,0.3,0.5,0.9,0.7,1.3l0,0c0.2,0.2,0.2,0.5,0.3,0.7l0,0c0.6,0.7,0.8,1.5,1,2.3v0
		c0.2,0.2,0.2,0.5,0.3,0.7c0.4,0.5,0.5,1.1,0.7,1.7c0.4,0.2,0.1,0.7,0.4,1l0,0c0.3,0.5,0.5,1.1,0.6,1.7c0.4,0.3,0.1,0.8,0.4,1.1
		l-0.1,0.1l0.1,0.1c0.3,0.3,0,0.7,0.3,1l0,0c0.4,0.6,0.5,1.3,0.6,2c0.4,0.4,0,0.9,0.3,1.3l0,0c0.3,0.8,0.5,1.6,0.7,2.4
		c0.4,0.4,0.1,0.9,0.3,1.4c0.6,0.7,0,1.6,0.4,2.3c0,0,0,0,0,0l0,0c0,0,0,0,0,0c0.5,2.4,0.8,4.8,1,7.2c-0.2,0.4-0.2,0.8,0,1.1
		c0.5,1.1-0.1,2.3,0.3,3.4l0,0c0.6,1.6,0.3,3.3,0.5,4.9c0.2,2.4,0.4,4.7,0.4,7.1c0,12.4,0,24.8,0,37.2c0,0.6-0.1,1.2,0.1,1.8l0,0
		c0.5,1.6,0.2,3.3,0.5,4.9c0.3,1.4,0.5,2.8,0.5,4.2c-0.1,0.2-0.1,0.4,0,0.5c0.5,2.5,1.1,5,1.3,7.5l-0.1,0.1l0.1,0.1
		c0.3,1.5,0.8,3,1,4.5c-0.1,0.2-0.1,0.3,0,0.5c0.4,0.4,0,1,0.3,1.4c0,0,0,0,0,0l0,0c0,0,0,0,0,0c0.3,0.8,0.5,1.6,0.6,2.4
		c0.4,0.4,0.1,1,0.4,1.4l0,0.1l0.1,0.1c0.3,0.3,0,0.7,0.3,1l0,0c0.3,0.3,0.1,0.7,0.3,1c0.3,0.3,0.1,0.7,0.3,1
		c0.4,0.3,0.1,0.7,0.3,1.1l0,0c0.4,0.2,0.1,0.7,0.4,1c0.5,0.6,0.5,1.3,0.7,2l0,0c0.3,0.8,0.8,1.5,0.9,2.4c0.4,0.2,0.1,0.7,0.4,1l0,0
		c0.2,0.2,0.2,0.5,0.3,0.7c0.2,0.2,0.2,0.5,0.3,0.7c0.4,0.2,0.1,0.7,0.4,1l0,0c0.2,0.2,0.1,0.5,0.3,0.7l0,0c0.5,0.6,0.7,1.3,1,2l0,0
		c0.1,0.1,0.3,0.2,0.2,0.4c0.3,0.1,0.3,0.4,0.4,0.6c0.3,0.1,0.2,0.4,0.3,0.6c0.3,0.3,0.5,0.6,0.6,1c0.3,0.1,0.2,0.4,0.4,0.6
		c0.6,0.7,1.2,1.5,1.6,2.4c0.4,0.2,0.5,0.6,0.7,1c0.2,0.1,0.3,0.2,0.3,0.4c0.3,0.1,0.2,0.4,0.4,0.6c0.1,0.1,0.2,0.2,0.3,0.4
		c0.1,0.1,0.3,0.2,0.3,0.4l0,0c0.5,0.5,1,1,1.4,1.7c0.1,0.1,0.3,0.2,0.3,0.4c1.6,1.7,3.3,3.4,5,5c0.2,0.1,0.3,0.2,0.4,0.3l0,0
		c0.1,0.1,0.2,0.2,0.3,0.3l0,0c0.1,0.2,0.5,0.1,0.6,0.4c0.2,0,0.3,0.1,0.4,0.3c0.1,0.1,0.2,0.2,0.4,0.3l0,0c0.2,0.2,0.5,0.1,0.6,0.4
		c0.2,0,0.3,0.2,0.4,0.3c0.3,0.2,0.7,0.4,1,0.7c0.4,0.2,0.7,0.4,1,0.6c0.2,0.2,0.5,0.1,0.6,0.4c0.2,0,0.3,0.1,0.4,0.3l0,0
		c0.2,0.2,0.5,0.1,0.6,0.4c0.4,0.1,0.7,0.4,1,0.6c0.2,0.2,0.5,0.1,0.6,0.4c0.6,0.3,1.2,0.6,1.7,0.9c0.4,0.2,1,0.3,1.3,0.7
		c0.2,0.1,0.5,0.1,0.7,0.3c0.2,0.1,0.5,0.1,0.7,0.3c0.2,0.1,0.5,0.1,0.7,0.3c0.2,0.1,0.5,0.1,0.7,0.3c0.2,0.1,0.5,0.1,0.7,0.3
		c0.2,0.1,0.5,0.1,0.7,0.3c0.2,0.1,0.5,0.1,0.7,0.3c0.2,0.1,0.5,0.1,0.7,0.3l0,0c0.2,0.2,0.5,0.1,0.7,0.3l0,0
		c0.8,0.3,1.6,0.6,2.3,1.1c0.3,0.1,0.5,0,0.7,0.3c0.6,0.2,1.2,0.3,1.7,0.7l0,0c0.3,0.3,0.8,0,1,0.3c1.1,0.3,2.2,0.6,3.3,1
		c0,0,0,0,0,0l0,0c0,0,0,0,0,0c0.3,0.2,0.8,0,1,0.3l0.1,0.1l0.1-0.1c1.3,0.2,2.5,0.7,3.8,1l0,0c3.6,0.3,7.1,1.2,10.8,0.7l0,0
		c1.3-0.4,2.8-0.4,4.2-0.7l0.1,0l0.1-0.1c0.9-0.4,1.9-0.7,2.8-0.9l0.1,0l0.1-0.1c0.5-0.3,1.1-0.4,1.7-0.6c0.2-0.2,0.5-0.2,0.7-0.3
		c0.2-0.4,0.7-0.1,1-0.4l0,0c0.2-0.2,0.5-0.2,0.7-0.3c0.2-0.2,0.5-0.2,0.7-0.3c0.2-0.2,0.4-0.2,0.7-0.3c0.2-0.2,0.4-0.2,0.7-0.3
		c0.1-0.3,0.5-0.2,0.7-0.3c0.3-0.4,0.9-0.4,1.3-0.7c0.3-0.2,0.7-0.5,1.1-0.6c0.1-0.3,0.4-0.2,0.6-0.4c0.1-0.2,0.5-0.2,0.6-0.4l0,0
		c0.1-0.1,0.2-0.2,0.4-0.3c0.4-0.5,1.1-0.7,1.6-1c0.3-0.3,0.6-0.5,1-0.7c0.1-0.2,0.5-0.2,0.6-0.4l0,0c0.1-0.1,0.2-0.2,0.4-0.3
		c0.4-0.3,0.8-0.8,1.4-1c0.4-0.4,0.8-0.8,1.3-1c0.1-0.2,0.2-0.3,0.3-0.3c0.1-0.2,0.2-0.3,0.3-0.3c0.1-0.2,0.2-0.3,0.4-0.3
		c1.1-1.1,2.2-2.2,3.3-3.3c0-0.2,0.2-0.3,0.3-0.4c0.1-0.2,0.2-0.3,0.3-0.4l0,0c0.2-0.2,0.1-0.5,0.4-0.6c0.1-0.2,0.1-0.5,0.3-0.7
		c0.1-0.2,0.1-0.5,0.3-0.7c0.1-0.2,0.1-0.5,0.3-0.7l0.1-0.1l0-0.1c0.2-1.2,0.6-2.3,1-3.5c0,0,0,0,0,0l0,0c0,0,0,0,0,0
		c0.4-0.6-0.1-1.4,0.4-2c0.2-1.1,0.3-2.3,0.7-3.3c0,0,0,0,0,0l0,0c0,0,0,0,0,0c0.4-0.6-0.1-1.4,0.3-2c0.1-0.2,0.1-0.3,0-0.5
		c0.2-2.8,0.6-5.7,1-8.5l0,0c0.4-1.2-0.2-2.5,0.3-3.7c0.1-0.5,0.2-1,0-1.5c0.2-3.2,0.2-6.5,0.5-9.7c0.2-2.1,0.2-4.1,0.5-6.2l0-0.1
		l-0.1-0.1c0.4-2.5,0.2-4.9,0.4-7.4c0.8-8.4,1-16.8,0.7-25.1c-0.1-2.9-0.3-5.9-0.9-8.9c-0.3-1.4,0.1-2.8-0.2-4.1l0,0
		c-0.4-2.6-0.7-5.2-1-7.8c0.2-0.3,0.1-0.5,0-0.8c-0.5-0.9,0.1-1.8-0.3-2.7l0,0c-0.3-2.7-0.7-5.5-0.9-8.2c0-0.7-0.3-1.3-0.2-2
		c0-0.2,0.1-0.3,0-0.5c-0.5-1.4-0.3-2.9-0.4-4.4c-0.7-6.1-0.4-12.2-0.4-18.3c0-0.1,0.1-0.1,0.2-0.2c0.3-0.8-0.2-1.6,0.3-2.3
		c0.3-0.6-0.1-1.4,0.3-2l0-0.1l-0.1-0.1c0.2-1.6,0.4-3.3,1-4.8c0,0,0,0,0,0l0,0c0,0,0,0,0,0c0.2-0.3,0-0.8,0.3-1
		c0.2-0.9,0.5-1.8,1-2.6c0.1-0.2,0.1-0.5,0.3-0.7c0.2-0.5,0.2-1,0.7-1.3c0.1-0.2,0.1-0.5,0.4-0.6c0-0.2,0.1-0.3,0.3-0.4
		c0.2-0.2,0.1-0.5,0.4-0.6c0-0.2,0.2-0.3,0.3-0.4c0.4-0.5,0.5-1.2,1-1.6l0,0c0-0.2,0.2-0.3,0.3-0.4c0.1-0.2,0.2-0.3,0.3-0.3
		c0.1-0.2,0.2-0.3,0.4-0.3c0.4-0.4,0.8-0.8,1.3-1c0.5-0.6,1.3-1,2-1.4c0.3-0.3,0.6-0.5,1-0.7c0.3-0.3,0.6-0.5,1-0.6
		c0.1-0.3,0.4-0.2,0.7-0.4c0.2-0.3,0.5-0.2,0.8-0.3l0.1,0.1l0.1-0.1c0.3-0.3,0.7-0.1,1.1-0.3l0,0c0.6-0.5,1.4,0,2-0.3l0,0
		c0.9-0.6,1.9,0,2.8-0.4c1.7,0,3.4,0,5,0c1.4,0.2,2.8,0.1,4.1,0.7l0,0c0.3,0.2,0.8,0,1.1,0.3c0.9,0.2,1.8,0.5,2.6,1.1
		c0.2,0.1,0.6,0,0.7,0.3c0.4,0.1,0.7,0.4,1.1,0.6l0,0c0.2,0.3,0.8,0,1,0.4c0.5,0.1,0.8,0.5,1,0.9c0.1,0.1,0.2,0.2,0.3,0.3l0,0
		c0.3,0.2,0.5,0.4,0.7,0.7l0,0c0.1,0.1,0.2,0.2,0.3,0.4l0,0c0.1,0.1,0.3,0.2,0.3,0.4c0.8,0.8,1.4,1.7,2,2.7c0.3,0.3,0.5,0.6,0.7,1
		c0.3,0.3,0.5,0.6,0.6,1c0.3,0.1,0.2,0.4,0.4,0.6c0.3,0.3,0.5,0.6,0.6,1.1c0.3,0.1,0.3,0.4,0.3,0.7c0.3,0.1,0.3,0.4,0.3,0.7
		c0.3,0.1,0.3,0.4,0.3,0.7c0.3,0.1,0.2,0.4,0.3,0.7c0.3,0.4,0.5,0.9,0.7,1.3c0.3,0.1,0.3,0.4,0.3,0.7c0.3,0.1,0.3,0.4,0.3,0.7
		c0.4,0.4,0.5,0.9,0.7,1.4c1.5,3.4,2.9,6.8,4.4,10.2c3,7,5.3,14.2,7.3,21.5c3.2,11.7,6,23.5,8.3,35.5c1.3,6.9,2.5,13.9,3.8,20.8
		c0.9,4.8,1.6,9.7,2.3,14.6c0.4,3.3,0.8,6.7,1.1,10c0.5,4.2,0.8,8.5,1.2,12.7c0.3,3.1,0.4,6.2,0.6,9.3c0.4,6.5,0.5,13.1,0.5,19.6
		c0,5.8,1.4,11.4,2.7,17c2.3,10.1,5.2,20.1,7.3,30.3c1.3,6.2,2.4,12.5,3,18.8c0.5,5.3,1,10.7,1.3,16c0.3,4.9,0.9,9.8,1.2,14.7
		c0.3,4.5,0.9,8.9,1.1,13.4c0.2,4,0.6,7.9,1,11.9c0.1,0.9-0.1,1.9,0.2,2.8c0.4,1.8,0.4,3.6,0.4,5.4c0.2,5.4,0.6,10.8,0.4,16.2
		c0,0.4,0,0.9,0.1,1.3c-0.2,2.8-0.1,5.6,0,8.5c0.4,1.7,0.2,3.4,0.2,5.1c-0.2,5.8,0.3,11.7,0.5,17.5c0.1,3.3,0,6.6,0.4,9.9
		c-0.1,1.3-0.1,2.7,0,4C401.9,373.3,402.1,374.2,402.1,375.2z"/>
	<path fill="currentColor" className="fa-primary" d="M360.6,322.8c-0.2,0.1-0.5,0.2-0.7,0.3c-2.4,0.6-4.8,1-7.3,1.1c-0.3-0.1-0.7-0.1-0.7,0.1
		c0,0.4,0.4,0.2,0.7,0.2c1.8,0.6,3.7,0.6,5.5,0c0.2,0,0.3,0,0.4-0.2c0.1-0.1,0.2-0.1,0.3-0.1c0.7,0.2,1.1,1.3,2,0.4
		c0.3-0.1,0.7,0,1-0.4c1.9-0.6,3.9-1.2,4.4-3.7c-1.7,0.5-2.8,1.5-4,2.4C361.8,322.6,361.2,322.2,360.6,322.8z"/>
	<path fill="currentColor" className="fa-primary" d="M322,277.7c0.4-0.1,0.8-0.4,1-0.8C322.5,276.9,322.1,277.1,322,277.7z"/>
	<path fill="currentColor" className="fa-primary" d="M324.7,275.6c-0.5,0-0.8,0.2-1,0.7c-0.2,0-0.3,0.1-0.4,0.3h0c-0.1,0.1-0.2,0.2-0.3,0.3c0.2,0,0.3-0.1,0.4-0.3
		c0.2,0,0.3-0.1,0.4-0.3C324.2,276.2,324.5,276,324.7,275.6c0.3,0,0.5-0.1,0.6-0.4C325,275.2,324.8,275.3,324.7,275.6z"/>
	<path fill="currentColor" className="fa-primary" d="M324.3,274.9c-0.1,0.1-0.3,0.2-0.4,0.3C324.1,275.2,324.3,275.1,324.3,274.9z"/>
	<path fill="currentColor" className="fa-primary" d="M344,366.5c0.1-1-0.3-1.3-1.2-1.5c-3.6-0.9-7.3-1.8-10.9-2.7c-1.4,1.6-1.1,3.4-1.1,5.3
		c0.3,0.7,0.3,1.5,0.3,2.3c0,1-0.1,2.1-0.2,3.1c-0.2,1.7,0.6,3.6,2.6,4.2c1.5,0.5,2.9,1,4.5,1c2.2,0.1,4-0.8,5-2.8
		c0.6-1.2,1-2.5,1-3.8C344,369.9,343.9,368.2,344,366.5z"/>
	<path fill="currentColor" className="fa-primary" d="M353.8,371.1c-0.3-1.2-0.1-2.9-1.2-3.6c-1.1-0.7-2.6-0.8-4-1c-1.6,0.3-2.1,1.5-2.3,3c0.1,1.1,0.1,2.2,0,3.3
		c0,1.4-0.4,2.6-1.3,3.6c-0.5,0.6-1,1.3-1.5,1.9c1.3,0.9,4,2,5.4,2.2c0.4,0.1,0.8,0,1.1-0.2c1.2-0.5,2.4-1.1,3.6-1.7
		c1.1-0.6,1.6-1.4,1.3-2.7C354.5,374.3,354.3,372.7,353.8,371.1z"/>
	<path fill="currentColor" className="fa-primary" d="M324.3,274.9c0.1-0.1,0.2-0.2,0.3-0.3C324.5,274.6,324.4,274.7,324.3,274.9z"/>
	<path fill="currentColor" className="fa-primary" d="M325.3,274.2c0.1-0.1,0.3-0.2,0.4-0.3C325.5,273.9,325.4,274,325.3,274.2c-0.1,0-0.2,0-0.3,0
		c0,0.1,0,0.2-0.1,0.3C325.1,274.5,325.2,274.4,325.3,274.2z"/>
	<path fill="currentColor" className="fa-primary" d="M326.9,269.8c-0.6,0.4-1.2,0.2-1.6,0.7c0.1,0.1,0.2,0.2,0.3,0.3C326.1,270.7,326.6,270.6,326.9,269.8z"/>
	<polygon className="fa-primary" points="218.1,495.4 218.1,495.4 218.1,495.4 	"/>
</g>
</svg>
